<?xml version="1.0" encoding="UTF-8" standalone="no"?>
<!-- Created with Inkscape (http://www.inkscape.org/) -->

<svg
   width="440.31216"
   height="75.598602"
   viewBox="0 0 116.49926 20.00213"
   version="1.1"
   id="svg5"
   sodipodi:docname="fac.svg"
   inkscape:version="1.1 (c68e22c387, 2021-05-23)"
   xmlns:inkscape="http://www.inkscape.org/namespaces/inkscape"
   xmlns:sodipodi="http://sodipodi.sourceforge.net/DTD/sodipodi-0.dtd"
   xmlns="http://www.w3.org/2000/svg"
   xmlns:svg="http://www.w3.org/2000/svg">
  <sodipodi:namedview
     id="namedview7"
     pagecolor="#505050"
     bordercolor="#eeeeee"
     borderopacity="1"
     inkscape:pageshadow="0"
     inkscape:pageopacity="0"
     inkscape:pagecheckerboard="0"
     inkscape:document-units="px"
     showgrid="false"
     inkscape:zoom="3.6203867"
     inkscape:cx="240.30582"
     inkscape:cy="27.483252"
     inkscape:window-width="3440"
     inkscape:window-height="1369"
     inkscape:window-x="-8"
     inkscape:window-y="-8"
     inkscape:window-maximized="1"
     inkscape:current-layer="layer1"
     showguides="true" />
  <defs
     id="defs2" />
  <g
     inkscape:label="Layer 1"
     inkscape:groupmode="layer"
     id="layer1"
     transform="translate(-0.430406,-0.24806)">
    <g
       aria-label="Friendly Arabic Church"
       id="text1265"
       style="font-size:14.1111px;line-height:1.25;font-family:'Arabic Magic';-inkscape-font-specification:'Arabic Magic, Normal';stroke-width:0.264583"
       transform="translate(-85.708861,-100.61901)">
      <path
         d="m 94.4626,101.44589 h 0.124023 c 0.09646,0.11024 0.192925,0.26412 0.289388,0.46164 0.05053,0.14699 0.08957,0.22049 0.117133,0.22049 v 0.11713 c 0,0.0184 -0.0069,0.0276 -0.02067,0.0276 0.0092,0.0965 0.03215,0.1447 0.0689,0.1447 v 0.0207 c -0.03675,0.0505 -0.05971,0.12403 -0.0689,0.22048 0.01378,0 0.02067,0.007 0.02067,0.0207 -0.183739,0.33992 -0.312355,0.54892 -0.38585,0.62701 -0.84979,0.50069 -1.396412,0.75103 -1.639865,0.75103 -0.04134,0.0367 -0.202111,0.0918 -0.482313,0.16536 0,0.0184 -0.0092,0.0276 -0.02756,0.0276 h -0.04823 c -0.03215,0 -0.06431,-0.009 -0.09646,-0.0276 -0.0689,0.0505 -0.349103,0.11484 -0.840603,0.19293 0,0.0184 -0.0092,0.0276 -0.02756,0.0276 h -0.02067 c -0.01837,0 -0.02756,-0.009 -0.02756,-0.0276 -0.01378,0.0184 -0.117133,0.0345 -0.310058,0.0482 -0.289388,-0.0367 -0.434082,-0.0689 -0.434082,-0.0965 l -0.04823,0.0276 c -0.133211,-0.0827 -0.222783,-0.12402 -0.268718,-0.12402 v 0.0276 c 0.09646,0.39044 0.169958,0.74414 0.220486,1.06109 h -0.02756 l 0.02756,0.0482 v 0.11713 l -0.02756,0.0482 0.04823,0.0276 c -0.01378,0.0827 -0.02067,0.13091 -0.02067,0.1447 0.02756,0.35369 0.06661,0.53054 0.117134,0.53054 l -0.09646,0.2136 v 0.17225 c 0,0.0643 0.0092,0.12864 0.02756,0.19293 -0.01837,0.0597 -0.02756,0.12404 -0.02756,0.19292 v 0.0207 c 0.11943,0.0505 0.248047,0.0758 0.38585,0.0758 h 0.192926 c 0.01837,0 0.02756,0.007 0.02756,0.0207 l 0.04823,-0.0207 c 0.289387,-0.0184 0.482312,-0.0276 0.578775,-0.0276 0,0.0413 0.103353,0.0827 0.310059,0.12403 v 0.0207 l 0.124023,-0.0207 h 0.117133 l 0.192925,0.21359 c 0.02756,0.0551 0.05282,0.12863 0.07579,0.22049 0,0.25723 -0.06431,0.43408 -0.192925,0.53054 -0.151584,0.25723 -0.296278,0.38585 -0.434082,0.38585 -0.174551,0.11025 -0.328432,0.16537 -0.461642,0.16537 -0.08728,0 -0.174552,0.009 -0.261827,0.0276 -0.01837,0 -0.02756,-0.009 -0.02756,-0.0276 -0.05512,0.0184 -0.08727,0.0276 -0.09646,0.0276 -0.156178,0 -0.404225,-0.0482 -0.744141,-0.1447 -0.192925,0.56959 -0.337618,1.06798 -0.434081,1.49517 -0.192925,0.27101 -0.401928,0.60174 -0.627007,0.99219 -0.07809,0 -0.158474,0.13551 -0.241157,0.40652 -0.344509,0.53743 -0.553512,0.8429 -0.627007,0.9164 -0.04134,0 -0.130912,0.15388 -0.268717,0.46164 -0.07809,0.0321 -0.13321,0.0873 -0.165364,0.16536 -0.07809,0.0551 -0.183738,0.19983 -0.316949,0.43408 -0.105649,0.11484 -0.241156,0.2113 -0.406521,0.28939 0,0.0735 -0.137804,0.2113 -0.413411,0.41341 -0.03215,0 -0.08728,0.0322 -0.165364,0.0965 -0.124023,0 -0.25264,0.0551 -0.385851,0.16536 l -0.04823,-0.0207 -0.124023,0.0207 -0.04823,-0.0689 c 0.04134,-0.0965 0.07349,-0.1447 0.09646,-0.1447 l -0.02067,-0.0482 v -0.0276 c 0.142397,-0.16995 0.271014,-0.37895 0.385851,-0.627 0.160771,-0.15159 0.264123,-0.28709 0.310058,-0.40652 l 0.07579,-0.0482 -0.02756,-0.0482 c 0.35829,-0.48691 0.58337,-0.85668 0.675239,-1.10932 l 0.172254,-0.31695 c 0.440972,-0.84519 0.73036,-1.44693 0.868164,-1.80522 0.225079,-0.66146 0.38585,-1.2655 0.482313,-1.81212 0,-0.0184 -0.0092,-0.0276 -0.02756,-0.0276 0.09646,-0.65687 0.144694,-1.28387 0.144694,-1.88102 l -0.02067,-0.0482 c 0,-0.0138 0.0069,-0.0207 0.02067,-0.0207 -0.07809,-0.79467 -0.23886,-1.51814 -0.482313,-2.17041 -0.188332,-0.28479 -0.36518,-0.43867 -0.530544,-0.46164 0,-0.0321 -0.08039,-0.0872 -0.241157,-0.16536 0,-0.023 -0.11943,-0.14473 -0.35829,-0.36518 0,-0.10565 -0.04134,-0.21819 -0.124023,-0.33762 v -0.0207 c 0,-0.0229 0.02526,-0.0482 0.07579,-0.0758 0.192925,0 0.457049,0.0574 0.792371,0.17225 1.10243,0.32154 1.954516,0.48231 2.556259,0.48231 l 0.124024,-0.0482 0.04823,0.0207 c 0.243453,-0.0321 0.693612,-0.14467 1.350476,-0.33762 0.03215,0.0184 0.05512,0.0276 0.0689,0.0276 0.601743,-0.19292 0.948549,-0.36977 1.040418,-0.53054 0.192925,-0.10105 0.314652,-0.18144 0.36518,-0.24116 0.03675,0 0.149286,-0.12173 0.337619,-0.36518 z"
         id="path23503"
         style="fill:#000000"
         sodipodi:nodetypes="ccccsccccccccssccsscccccccccccccccscscsscccccccccccsccscccccccccccccccccccccccccccccccccccsccccccccccc" />
      <path
         d="m 97.260015,108.39116 h 0.103353 c 0.183738,0 0.383553,0.14699 0.599446,0.44097 v 0.0276 c -0.146991,0.16077 -0.406521,0.31695 -0.778591,0.46853 L 96.68813,109.721 c -0.326135,0.34451 -0.551215,0.51677 -0.675238,0.51677 -0.422598,0.45475 -0.682128,0.81763 -0.778591,1.08865 -0.422598,0.47312 -0.682128,0.89801 -0.778591,1.27468 -0.10565,0.39504 -0.158475,0.86357 -0.158475,1.4056 l 0.02756,0.17914 -0.04823,0.0276 h -0.158474 c -0.399631,-0.0413 -0.824526,-0.24804 -1.274685,-0.62011 -0.03215,-0.11484 -0.04823,-0.18604 -0.04823,-0.2136 l 0.124023,-0.51676 c 0,-0.0184 -0.0069,-0.0437 -0.02067,-0.0758 0.01378,-0.53285 0.04823,-0.99219 0.103352,-1.37804 v -0.39274 c 0,-0.61093 -0.121726,-1.38953 -0.365179,-2.33578 v -0.0276 c 0.04134,-0.0321 0.07579,-0.0482 0.103352,-0.0482 0.174551,0 0.47772,0.11254 0.909505,0.33762 0.234266,0.22967 0.390444,0.51447 0.468533,0.85438 0.0092,0 0.03445,0.15618 0.07579,0.46854 h 0.05512 c 0.156177,-0.12862 0.303168,-0.31006 0.440972,-0.54433 0.349103,-0.33532 0.61782,-0.55351 0.806152,-0.65457 0.734953,-0.45015 1.322915,-0.67523 1.763887,-0.67523 z"
         id="path23505"
         style="fill:#000000"
         sodipodi:nodetypes="csccccccccccccccccsccscccccccc" />
      <path
         d="m 98.224641,104.70491 h 0.0689 q 0.268717,0 0.730359,0.58566 0.08957,0.2136 0.08957,0.25494 l -0.206706,0.53743 v 0.0276 q 0.04134,0.39963 0.420302,0.8406 0.04823,0.0758 0.04823,0.1378 l -0.04823,0.0276 h -0.02756 q -0.213596,0 -0.74414,-0.37896 -0.427192,-0.25493 -0.682129,-0.72347 l -0.02067,-0.1378 q 0,-0.46853 0.303168,-0.81993 0.02067,-0.13092 0.02067,-0.19293 l -0.02067,-0.0413 q 0.02756,-0.11713 0.0689,-0.11713 z m 0.02067,3.34863 h 0.117133 q 0.475422,0.11713 0.964626,0.63389 0.04823,0.33073 0.04823,0.48921 l -0.02756,0.0482 0.04823,0.2825 q -0.06201,0.30317 -0.09646,0.72347 -0.137804,0.28938 -0.509874,1.5434 -0.37896,1.55718 -0.37896,1.68809 0,0.51677 0.144694,0.51677 0,0.0551 0.0689,0.1378 v 0.0482 q 0,0.0482 -0.04823,0.0482 h -0.0689 Q 97.831901,114.0548 97.638976,113.74474 97.40471,113.352 97.40471,112.87658 v -0.37207 l 0.02067,-0.1447 -0.02067,-0.0413 q 0.09646,-0.82682 0.399631,-1.52273 0.420301,-1.22645 0.420301,-2.25309 v -0.2067 q 0,-0.0413 -0.04823,-0.1447 0.03445,-0.1378 0.0689,-0.1378 z"
         id="path23507"
         style="fill:#000000" />
      <path
         d="m 101.38724,106.95111 h 0.0551 c 0.24805,0.14239 0.44556,0.50298 0.59255,1.08176 v 0.13091 c -0.24805,0.37207 -0.61552,0.73036 -1.10243,1.07487 -0.30317,0.30317 -0.48231,0.59026 -0.53743,0.86127 0.0138,0.0367 0.0207,0.0643 0.0207,0.0827 h 0.11024 c 0.10106,-0.26183 0.39734,-0.62012 0.88884,-1.07487 0.62011,-0.52366 0.98759,-0.78549 1.10243,-0.78549 0.53284,-0.33991 1.02434,-0.50987 1.4745,-0.50987 0.56959,0 0.94625,0.26872 1.12999,0.80615 0.17914,0.39504 0.26871,0.76252 0.26871,1.10243 0,0.23427 -0.25953,0.52136 -0.77859,0.86128 -0.11483,0.16077 -0.39274,0.31465 -0.83371,0.46164 -0.30317,0.26183 -0.77859,0.46623 -1.42627,0.61322 -0.16995,0.0551 -0.2756,0.0827 -0.31695,0.0827 -0.0827,0 -0.2802,-0.009 -0.59255,-0.0276 -0.0367,0.0184 -0.0643,0.0276 -0.0827,0.0276 -0.0275,-0.0184 -0.0712,-0.0276 -0.13092,-0.0276 h -0.0551 c -0.16077,0.2067 -0.24116,0.45704 -0.24116,0.75103 v 0.16536 c 0.11943,0.32154 0.44098,0.48231 0.96463,0.48231 h 0.0276 c 0.73036,0 1.57326,-0.21589 2.5287,-0.64767 0.19293,-0.0689 0.50528,-0.22049 0.93706,-0.45476 l 0.16537,-0.0276 h 0.0758 c 0,0.0184 0.009,0.046 0.0276,0.0827 l 0.0551,-0.0276 c 0.0367,0.005 0.0551,0.023 0.0551,0.0551 -0.10105,0.10565 -0.17225,0.15847 -0.21359,0.15847 0,0.0184 0.009,0.0276 0.0276,0.0276 -0.0138,0.0781 -0.0506,0.13091 -0.11024,0.15848 -0.0873,0.19751 -0.2136,0.29627 -0.37896,0.29627 -0.11484,0.3537 -0.2848,0.57878 -0.50988,0.67524 -0.023,0.0229 -0.10338,0.0666 -0.24115,0.13092 v 0.0276 c 0.0184,0 0.0276,0.009 0.0276,0.0276 -0.41801,0.22967 -0.81305,0.38355 -1.18512,0.46164 v -0.0276 c -0.11943,0.0689 -0.39733,0.13091 -0.83371,0.18603 -0.19293,-0.009 -0.28939,-0.0276 -0.28939,-0.0551 l -0.0551,0.0276 h -0.0276 c -0.2802,0 -0.47772,-0.062 -0.59255,-0.18603 -0.39045,-0.32614 -0.64998,-0.64998 -0.77859,-0.97152 -0.27102,-0.52365 -0.40653,-1.00597 -0.40653,-1.44694 v -0.19292 c 0,-0.0643 0.009,-0.14472 0.0276,-0.24116 0,-0.0781 -0.13321,-0.29168 -0.399635,-0.64079 -0.252641,-0.48231 -0.378961,-0.7694 -0.378961,-0.86127 h 0.02756 l -0.02756,-0.0551 0.02756,-0.0551 c 0,-0.0367 -0.0092,-0.0551 -0.02756,-0.0551 0,-0.55581 0.160771,-0.96693 0.482313,-1.23335 0,-0.0919 0.126323,-0.23656 0.378963,-0.43408 0.13321,-0.023 0.4915,-0.31009 1.07487,-0.86127 z m 1.10243,3.06613 0.0276,0.0551 c 0.52825,-0.16077 1.05649,-0.41111 1.58474,-0.75103 l 0.18603,-0.16536 v -0.0276 h -0.0758 c -0.418,0.0965 -0.68672,0.19522 -0.80615,0.29627 -0.39504,0.21589 -0.7005,0.41341 -0.91639,0.59256 z"
         id="path23509"
         style="fill:#000000"
         sodipodi:nodetypes="ccccccccccscscccsccscscssccccccccccccccccccccsccsscccccccccccccccccccc" />
      <path
         d="m 105.72116,107.2405 c 0.21589,0 0.44557,0.10105 0.68902,0.30316 0.22967,0.18833 0.48691,0.42719 0.7717,0.71658 0.20671,0.21589 0.43638,0.61093 0.68902,1.18512 0.0689,-0.0321 0.16996,-0.16994 0.30317,-0.41342 0.0551,0 0.17456,-0.11943 0.35829,-0.35829 0.35829,-0.31235 0.74414,-0.46853 1.15755,-0.46853 0.0551,0 0.11944,-0.009 0.19292,-0.0276 0.51447,0 1.03813,0.28479 1.57097,0.85438 0.51447,0.54663 0.7717,1.02435 0.7717,1.43316 0.0367,0.16537 0.0551,0.2848 0.0551,0.35829 h -0.0276 l 0.0276,0.0551 v 0.0827 c -0.0367,0.12861 -0.0551,0.20211 -0.0551,0.22048 v 0.27561 c -0.16537,0.90032 -0.33992,1.46072 -0.52366,1.6812 0,0.0827 -0.11024,0.32155 -0.33073,0.71658 0,0.0919 -0.0276,0.13781 -0.0827,0.13781 h -0.0551 c -0.25264,0 -0.57418,-0.22967 -0.96463,-0.68902 v -0.11024 c 0.19293,-0.31236 0.43179,-0.95545 0.71658,-1.92926 0.0643,-0.55121 0.11027,-0.82682 0.13781,-0.82682 l -0.0276,-0.27561 v -0.19292 c -0.0643,-0.47772 -0.1562,-0.71658 -0.27561,-0.71658 -0.10105,-0.0184 -0.18374,-0.0276 -0.24805,-0.0276 -0.55121,0.18374 -0.82682,0.33992 -0.82682,0.46853 -0.18374,0.12862 -0.52366,0.54203 -1.01975,1.24024 0,0.0781 -0.0827,0.27101 -0.24804,0.57877 -0.16537,0.36289 -0.27561,0.64768 -0.33073,0.85438 -0.11943,0.15618 -0.22049,0.53284 -0.30317,1.12999 l 0.0276,0.0551 c -0.0551,0.17914 -0.0919,0.3445 -0.11024,0.49609 l 0.0276,0.0551 v 0.0551 c 0,0.0367 -0.0184,0.0551 -0.0551,0.0551 h -0.13781 c -0.0965,0 -0.34451,-0.11024 -0.74414,-0.33073 -0.0965,-0.005 -0.29857,-0.17003 -0.60633,-0.49609 0,-0.27101 0.0827,-0.58337 0.24804,-0.93706 -0.0184,-0.0367 -0.0276,-0.0643 -0.0276,-0.0827 0,-0.31235 0.0276,-0.46853 0.0827,-0.46853 l -0.0276,-0.0551 v -0.0827 c 0,-0.0184 0.009,-0.0276 0.0276,-0.0276 l -0.0276,-0.0551 0.0276,-0.0551 -0.0276,-0.0551 c 0.0367,-0.11943 0.0551,-0.19292 0.0551,-0.22048 0,-0.0184 -0.009,-0.0276 -0.0276,-0.0276 l 0.0551,-0.6339 -0.0276,-0.0551 c 0.0367,-0.0873 0.0551,-0.19752 0.0551,-0.33073 0,-0.57878 -0.11943,-1.22186 -0.35829,-1.92925 -0.0735,-0.0689 -0.18374,-0.27102 -0.33073,-0.60634 -0.18374,-0.13321 -0.27561,-0.2802 -0.27561,-0.44097 v -0.0276 c 0.005,-0.0367 0.023,-0.0551 0.0551,-0.0551 z"
         id="path23511"
         style="fill:#000000"
         sodipodi:nodetypes="ccccccscccccccscccssccccccccccccccccssscccsccsccccscccsccsccc" />
      <path
         d="m 120.76244,101.09445 v 0.0276 l 0.0551,-0.0276 c 0.12862,0.0321 0.27331,0.1929 0.43408,0.48231 0.12403,0.2113 0.18604,0.39963 0.18604,0.565 -0.0827,0.23427 -0.21819,0.3514 -0.40652,0.3514 -0.1424,0.0965 -0.33762,0.33073 -0.58567,0.7028 -0.22967,0.19751 -0.46394,0.50068 -0.7028,0.9095 0,0.0275 -0.21589,0.52133 -0.64768,1.48139 -0.14239,0.39504 -0.4203,1.32751 -0.83371,2.79742 -0.14699,0.26642 -0.26182,0.67983 -0.34451,1.24023 l 0.0207,0.0482 c -0.22967,0.76711 -0.38126,1.51354 -0.45475,2.23931 -0.0321,0 -0.0505,0.0436 -0.0551,0.13092 0,0.0873 -0.009,0.29398 -0.0276,0.62011 0,0.0643 0.0643,0.14472 0.19292,0.24116 h 0.0758 c 0.23426,0 0.57647,-0.17915 1.02663,-0.53744 0.009,0 0.0436,-0.009 0.10336,-0.0276 0,0.0367 0.0459,0.0896 0.1378,0.15848 v 0.22048 l 0.0276,0.13092 c -0.0321,0 -0.0689,0.0643 -0.11024,0.19292 0.0735,0 0.11024,0.0161 0.11024,0.0482 -0.0873,0.0827 -0.22278,0.29858 -0.40652,0.64768 -0.1424,0.10565 -0.29398,0.15848 -0.45475,0.15848 -0.37207,-0.0965 -0.7763,-0.38126 -1.21268,-0.85439 -0.19292,-0.16995 -0.33532,-0.38585 -0.42719,-0.64768 h -0.0276 c -0.33073,0.46853 -0.52824,0.70969 -0.59255,0.72347 -0.33533,0.25264 -0.64998,0.37896 -0.94396,0.37896 l -0.0551,-0.0276 c -0.0184,0 -0.0437,0.009 -0.0758,0.0276 -0.40882,0 -0.85668,-0.31465 -1.34359,-0.94395 -0.35369,-0.37207 -0.56959,-0.80156 -0.64768,-1.28847 l -0.0551,-0.21359 c 0,-0.0184 0.009,-0.0276 0.0276,-0.0276 l -0.0276,-0.11025 c 0,-0.92328 0.42949,-1.89939 1.28847,-2.92832 0.64767,-0.50528 1.17822,-0.75792 1.59163,-0.75792 0.2802,-0.0689 0.51217,-0.10336 0.69591,-0.10336 0.22049,0 0.47313,0.0344 0.75792,0.10336 h 0.0276 c 0.24805,-0.86357 0.46164,-1.51814 0.64079,-1.96371 0.46853,-1.42397 0.8452,-2.26687 1.12999,-2.5287 0.16995,-0.32154 0.30546,-0.51906 0.40652,-0.59255 0.22508,-0.27101 0.52136,-0.52136 0.88883,-0.75103 0.12403,-0.19752 0.32844,-0.29628 0.61323,-0.29628 z m -6.91086,10.22504 c 0.0184,0.0321 0.0276,0.0574 0.0276,0.0758 h -0.0276 c 0,0.0184 0.009,0.0276 0.0276,0.0276 -0.0184,0.10105 -0.0276,0.17225 -0.0276,0.21359 0,0.023 0.009,0.0506 0.0276,0.0827 0,0.0413 -0.0276,0.19521 -0.0827,0.46164 0.0275,0.14239 0.17223,0.21359 0.43408,0.21359 h 0.26872 c 0.46394,0 1.01056,-0.2779 1.63986,-0.83371 l 0.13092,-0.0551 c -0.0184,-0.24345 -0.0276,-0.4226 -0.0276,-0.53743 0.0551,-0.71658 0.18145,-1.41708 0.37896,-2.10151 l 0.11024,-0.39963 c -0.0184,0 -0.0276,-0.009 -0.0276,-0.0276 -0.34451,0.0551 -0.68672,0.18145 -1.02664,0.37896 -0.16077,0 -0.47312,0.25034 -0.93706,0.75103 -0.52825,0.72577 -0.81535,1.29995 -0.86128,1.72254 -0.0184,0 -0.0276,0.009 -0.0276,0.0276 z"
         id="path23513"
         style="fill:#000000"
         sodipodi:nodetypes="ccccccccccccccccscccccccccccccccccccccccsccccccccccccsccssccccccccccc" />
      <path
         d="m 121.38945,102.43115 h 0.0276 c 0.32154,0.0643 0.67064,0.33305 1.0473,0.80615 0.0827,0.11943 0.12403,0.45934 0.12403,1.01975 0,0.25723 -0.0413,0.61322 -0.12403,1.06797 0,0.38126 -0.0436,0.69362 -0.13091,0.93707 l 0.0207,0.0551 c -0.11024,0.50528 -0.24804,0.93936 -0.41341,1.30225 -0.10565,0.37666 -0.17455,0.60174 -0.20671,0.67523 0.0138,0.0321 0.0207,0.0666 0.0207,0.10336 -0.0551,0.0275 -0.11485,0.22735 -0.17915,0.59944 -0.45475,1.16215 -0.74184,1.96141 -0.86127,2.39779 -0.19293,0.35369 -0.28939,0.64997 -0.28939,0.88883 -0.0781,0.0735 -0.16307,0.43867 -0.25494,1.09554 0,0.19293 0.0597,0.28939 0.17915,0.28939 0.12402,0.10565 0.18603,0.21819 0.18603,0.33762 v 0.0758 c -0.0138,0.0413 -0.0758,0.085 -0.18603,0.13091 -0.58337,-0.24345 -0.92329,-0.47772 -1.01975,-0.7028 -0.0505,0 -0.11025,-0.22737 -0.17914,-0.68212 0.0184,-0.25723 0.0368,-0.39504 0.0551,-0.41341 l -0.0276,-0.0551 c 0,-0.31695 0.37207,-1.59393 1.11621,-3.83094 0.45475,-1.57096 0.68212,-2.4575 0.68212,-2.65961 0.0735,-0.0597 0.15159,-0.40654 0.23427,-1.04042 0.0413,0 0.10105,-0.36518 0.17915,-1.09554 0,-0.0184 -0.007,-0.0437 -0.0207,-0.0758 0.0138,-0.11943 0.0207,-0.2159 0.0207,-0.28939 0,-0.0184 -0.007,-0.0437 -0.0207,-0.0758 l 0.0207,-0.15847 c 0,-0.0413 -0.007,-0.0758 -0.0207,-0.10336 l 0.0207,-0.0551 c -0.0505,-0.18374 -0.0758,-0.29628 -0.0758,-0.33762 v -0.13091 c 0,-0.023 0.0253,-0.0483 0.0758,-0.0758 z"
         id="path23515"
         style="fill:#000000"
         sodipodi:nodetypes="cccscccccccccccscccccccccccsccccsscc" />
      <path
         d="m 122.92596,107.86061 c 0.38125,0.15618 0.67523,0.40423 0.88194,0.74414 v 0.0551 c -0.14699,0.32614 -0.34911,0.87736 -0.60634,1.65365 -0.18373,0.35829 -0.2756,0.70739 -0.2756,1.04731 l 0.0276,0.0551 c -0.0367,0.0919 -0.0551,0.30317 -0.0551,0.6339 v 0.38585 c 0.0919,0.23886 0.14699,0.35829 0.16536,0.35829 h 0.0551 c 0.39963,0 0.81305,-0.25724 1.24024,-0.77171 0.29398,-0.22967 0.44097,-0.4134 0.44097,-0.55121 0.38125,-0.47313 0.65686,-0.85898 0.82682,-1.15755 0.20211,-0.23427 0.33073,-0.50069 0.38585,-0.79926 0.12861,-0.13321 0.30316,-0.62012 0.52365,-1.46072 0,-0.12862 0.0551,-0.19293 0.16537,-0.19293 0.18833,0 0.45475,0.17455 0.79926,0.52366 0.0551,0 0.147,0.1378 0.27561,0.41341 -0.11025,0.54203 -0.2113,0.91869 -0.30317,1.12999 -0.0597,0.0643 -0.16079,0.37669 -0.30317,0.93706 -0.0551,0.0597 -0.11944,0.28022 -0.19292,0.66146 -0.0459,0 -0.10106,0.24805 -0.16537,0.74414 -0.20211,0.27101 -0.37666,0.6293 -0.52365,1.07487 l -0.55122,1.26779 c 0,0.0551 -0.0735,0.147 -0.22048,0.27561 0,0.30317 -0.19293,0.7717 -0.57878,1.4056 0,0.0367 -0.17455,0.23885 -0.52365,0.60634 0,0.17914 -0.18374,0.49149 -0.55122,0.93706 -0.0321,0.0597 -0.14238,0.21591 -0.33073,0.46853 -0.10565,0.16537 -0.21589,0.27561 -0.33073,0.33073 0,0.0735 -0.33991,0.45935 -1.01974,1.15755 -0.37667,0.37667 -0.67984,0.57878 -0.90951,0.60634 -0.24345,0.18374 -0.60174,0.31236 -1.07487,0.38585 h -0.0276 c -0.0184,0 -0.0276,-0.009 -0.0276,-0.0276 -0.0873,0.0551 -0.32613,0.0919 -0.71658,0.11024 -0.46394,0 -0.9141,-0.14699 -1.35047,-0.44097 -0.48231,-0.26642 -0.79467,-0.61552 -0.93707,-1.04731 -0.0735,-0.22049 -0.11024,-0.54203 -0.11024,-0.96462 v -0.0276 c 0,-0.29858 0.0459,-0.54663 0.1378,-0.74414 0,-0.13781 0.0735,-0.38585 0.22049,-0.74414 0,-0.12403 0.12862,-0.32614 0.38585,-0.60634 0.0184,0.0275 0.0276,0.0827 0.0276,0.16536 h 0.0276 v -0.0827 h 0.0551 l 0.0276,0.16537 c -0.0184,0 -0.0276,0.009 -0.0276,0.0276 0.0321,0.0184 0.0689,0.0276 0.11024,0.0276 0,0.0919 -0.0551,0.20211 -0.16536,0.33073 0.0184,0 0.0276,0.009 0.0276,0.0276 0.0735,-0.0367 0.12861,-0.0551 0.16536,-0.0551 v 0.11024 c 0,0.0965 0.009,0.25264 0.0276,0.46853 l -0.0551,0.0276 0.0276,0.13781 -0.0827,0.66145 c 0.0413,0 0.0781,0.37666 0.11025,1.12999 0.023,0 0.0598,0.0827 0.11024,0.24805 l 0.19292,0.35829 c 0,0.0873 0.11943,0.1424 0.35829,0.16537 l 0.0551,-0.0276 h 0.0276 c 1.18051,0 2.45749,-0.87276 3.83094,-2.61827 0.2802,-0.27561 0.52825,-0.6339 0.74414,-1.07487 0.59255,-0.90031 1.14377,-1.97518 1.65364,-3.2246 v -0.0276 h -0.0276 c -0.33991,0.23427 -0.61552,0.38126 -0.82682,0.44097 -0.0184,0 -0.0276,-0.009 -0.0276,-0.0276 l -0.1378,0.0276 c -0.44097,0 -1.0565,-0.29398 -1.84657,-0.88194 -0.27561,-0.27102 -0.45017,-0.62012 -0.52366,-1.04731 l 0.0551,-0.88195 -0.0276,-0.0551 c 0,-0.24345 0.12862,-0.66605 0.38585,-1.26779 0,-0.2113 0.16537,-0.58796 0.4961,-1.12999 0.0597,-0.36748 0.17916,-0.55122 0.35829,-0.55122 z"
         id="path23517"
         style="fill:#000000"
         sodipodi:nodetypes="ccccccscsscccccscccccccccccccccccsccccsscccccccccccccscccccccccscccccccccccccccc" />
      <path
         d="m 133.41282,102.43804 h 0.0276 c 0.65687,0 1.22875,0.25723 1.71566,0.7717 0.63389,0.77629 0.95084,1.56637 0.95084,2.37022 h -0.0482 v 0.12402 l 0.0482,-0.0276 0.0207,0.0551 c 0,0.0321 -0.0161,0.0482 -0.0482,0.0482 0,-0.0184 -0.007,-0.0276 -0.0207,-0.0276 v 0.0758 c 0.0459,0 0.0689,0.0161 0.0689,0.0482 v 0.0276 c -0.0459,0 -0.0689,0.009 -0.0689,0.0276 l -0.0758,0.89572 0.0482,0.34451 c -0.0689,0.19293 -0.12632,0.59256 -0.17225,1.1989 l 0.0207,0.10335 c -0.0138,0.36747 -0.0299,0.59026 -0.0482,0.66835 l 0.0276,0.0482 -0.10336,0.92328 0.10336,1.04731 -0.0276,0.0551 0.0276,0.0482 -0.0276,0.0482 c 0.0321,0.16536 0.0482,0.31465 0.0482,0.44786 v 0.12402 l 0.0276,0.12402 c 0.26642,0 0.39963,0.0344 0.39963,0.10336 v 0.0482 c -0.0505,0.0413 -0.0758,0.0919 -0.0758,0.15158 -0.0689,0 -0.10336,0.0161 -0.10336,0.0482 0.0321,0.0184 0.0574,0.0276 0.0758,0.0276 v 0.0482 h -0.14469 c -0.0367,0.005 -0.0712,0.046 -0.10335,0.12402 0.11483,0.68443 0.31465,1.50666 0.59944,2.46669 0.0827,0.13321 0.19063,0.43178 0.32384,0.89572 0.0275,0.0321 0.11022,0.28248 0.24805,0.75103 0.1424,0.22508 0.27561,0.565 0.39963,1.01975 v 0.0482 c -0.0138,0 -0.0643,0.009 -0.15158,0.0276 -0.40882,0 -0.89802,-0.65686 -1.46761,-1.97059 -0.32155,-0.4915 -0.64539,-1.43086 -0.97152,-2.81809 h -0.19981 c -0.11943,0 -0.43638,0.0505 -0.95085,0.15158 v -0.0276 c -0.13321,0.0505 -0.39045,0.0942 -0.7717,0.13092 -0.0827,0.11483 -0.16536,0.19751 -0.24805,0.24804 0,0.0965 -0.11713,0.23657 -0.3514,0.42031 -0.0229,0.0689 -0.0482,0.10335 -0.0758,0.10335 l -0.0482,-0.0276 c 0,0.16536 -0.0988,0.24804 -0.29628,0.24804 -0.0138,0 -0.0804,-0.007 -0.19981,-0.0207 0,0.0138 -0.009,0.0207 -0.0276,0.0207 0,-0.023 -0.0253,-0.0483 -0.0758,-0.0758 0,0.0597 -0.0413,0.10108 -0.12402,0.12403 l -0.0207,-0.0482 v -0.0207 c 0.0735,-0.40881 0.15618,-0.64997 0.24805,-0.72347 0,-0.0827 0.0505,-0.18373 0.15158,-0.30316 v -0.0482 c -0.0184,0 -0.0437,-0.009 -0.0758,-0.0276 -0.0184,0 -0.0276,0.009 -0.0276,0.0276 -0.68902,-0.0873 -1.18741,-0.22737 -1.49517,-0.4203 -0.43179,-0.51906 -0.64768,-0.94395 -0.64768,-1.27468 l 0.12402,-0.0965 c 0.72117,0.36288 1.23564,0.54432 1.5434,0.54432 0.23886,0.0505 0.60634,0.10106 1.10243,0.15158 0.0781,0 0.16767,-0.1424 0.26872,-0.42719 0.58797,-1.13458 1.02894,-2.27146 1.32292,-3.41064 0.28479,-1.04271 0.45016,-1.90858 0.49609,-2.5976 0.0367,-0.12861 0.0551,-0.32613 0.0551,-0.59255 0,-0.25264 -0.11713,-0.65227 -0.3514,-1.1989 l -0.44786,-0.69591 c -0.38126,-0.27561 -0.57189,-0.47542 -0.57189,-0.59944 0.0597,-0.0505 0.11715,-0.0758 0.17226,-0.0758 z m 1.19889,8.39913 c -0.20671,0.51906 -0.40652,0.89343 -0.59944,1.1231 0,0.0321 0.0919,0.0574 0.2756,0.0758 l 0.12403,-0.0276 h 0.34451 c 0,-0.0321 0.009,-0.0482 0.0276,-0.0482 -0.0505,-0.22967 -0.0827,-0.59485 -0.0965,-1.09554 l -0.0551,-0.0276 z"
         id="path23519"
         style="fill:#000000"
         sodipodi:nodetypes="cscccccccccscccccccccccccsccscccccccccccccccscccccccscccccccccccccccccccscccccccccccccc" />
      <path
         d="m 141.74305,108.39116 h 0.10336 c 0.18373,0 0.38355,0.14699 0.59944,0.44097 v 0.0276 c -0.14699,0.16077 -0.40652,0.31695 -0.77859,0.46853 l -0.49609,0.39274 c -0.32613,0.34451 -0.55121,0.51677 -0.67524,0.51677 -0.4226,0.45475 -0.68213,0.81763 -0.77859,1.08865 -0.4226,0.47312 -0.68213,0.89801 -0.77859,1.27468 -0.10565,0.39504 -0.15848,0.86357 -0.15848,1.4056 l 0.0276,0.17914 -0.0482,0.0276 h -0.15847 c -0.39963,-0.0413 -0.82453,-0.24804 -1.27468,-0.62011 -0.0321,-0.11484 -0.0482,-0.18604 -0.0482,-0.2136 l 0.12403,-0.51676 c 0,-0.0184 -0.007,-0.0437 -0.0207,-0.0758 0.0138,-0.53285 0.0482,-0.99219 0.10335,-1.37804 v -0.39274 c 0,-0.61093 -0.12173,-1.38953 -0.36518,-2.33578 v -0.0276 c 0.0413,-0.0321 0.0758,-0.0482 0.10335,-0.0482 0.17455,0 0.47772,0.11254 0.90951,0.33762 0.23427,0.22967 0.39044,0.51447 0.46853,0.85438 0.009,0 0.0345,0.15618 0.0758,0.46854 h 0.0551 c 0.15618,-0.12862 0.30317,-0.31006 0.44097,-0.54433 0.34911,-0.33532 0.61783,-0.55351 0.80616,-0.65457 0.73495,-0.45015 1.32291,-0.67523 1.76388,-0.67523 z"
         id="path23521"
         style="fill:#000000"
         sodipodi:nodetypes="csccccccccccccccccsccscccccccc" />
      <path
         d="m 147.31032,107.71592 h 0.0482 c 0.22967,0.22049 0.43408,0.52595 0.61322,0.91639 0.0138,0.0873 0.0207,0.17226 0.0207,0.25494 0,0.13781 -0.23656,0.30776 -0.70969,0.50987 -0.18833,0.0459 -0.28249,0.0965 -0.28249,0.15159 0.35829,0.44557 0.53743,0.76022 0.53743,0.94395 0.0321,0.28479 0.0482,0.47083 0.0482,0.55811 h -0.0207 c 0.0321,0.0689 0.0482,0.11943 0.0482,0.15158 -0.0321,0.005 -0.0482,0.023 -0.0482,0.0551 v 0.17915 c 0,0.68902 0.0666,1.27469 0.19982,1.757 0,0.28939 0.22967,0.84979 0.68902,1.6812 v 0.0207 c -0.0184,0 -0.0276,0.009 -0.0276,0.0276 -0.46393,-0.1378 -0.78547,-0.35829 -0.96462,-0.66146 -0.51447,-0.67983 -0.81304,-1.35966 -0.89573,-2.03949 -0.0321,-0.22049 -0.0735,-0.33073 -0.12402,-0.33073 -0.0735,0.0597 -0.17455,0.20443 -0.30317,0.43408 -0.15617,0.12862 -0.29398,0.28939 -0.41341,0.48232 -0.25264,0.30776 -0.43867,0.46164 -0.5581,0.46164 -0.12403,0.11483 -0.27561,0.22508 -0.45476,0.33073 0,0.0643 -0.18833,0.16539 -0.56499,0.30317 -0.0919,0.0184 -0.16766,0.0276 -0.22738,0.0276 -0.88194,-0.31236 -1.4676,-0.76252 -1.75699,-1.35048 -0.13781,-0.22049 -0.22279,-0.44097 -0.25494,-0.66146 l 0.0276,-0.13091 v -0.22738 l -0.0276,-0.15158 c 0.0965,-0.57419 0.2756,-0.9899 0.53743,-1.24713 0.0735,-0.0275 0.17456,-0.17223 0.30317,-0.43408 0.0184,0 0.17228,-0.14469 0.46164,-0.43408 0.23427,-0.23886 0.44557,-0.36518 0.6339,-0.37896 0.33532,-0.13321 1.25172,-0.40652 2.74919,-0.81993 0.40422,-0.12403 0.64308,-0.25035 0.71657,-0.37896 z m -4.25813,4.9127 v 0.0276 c 0,0.0229 0.0253,0.0482 0.0758,0.0758 h 0.10335 c 0.11943,0 0.36518,-0.14469 0.73725,-0.43408 0.41341,-0.30317 0.78778,-0.68442 1.12311,-1.14377 0,-0.0597 0.11943,-0.19524 0.35828,-0.40652 0.12862,-0.14699 0.28021,-0.43638 0.45476,-0.86816 0.0367,0 0.0551,-0.0597 0.0551,-0.17915 -0.0184,0 -0.0276,-0.007 -0.0276,-0.0207 -1.15296,0.32613 -1.77997,0.62241 -1.88102,0.88884 -0.11025,0 -0.35829,0.26183 -0.74414,0.78548 -0.0321,0.31235 -0.10793,0.62011 -0.22738,0.92328 -0.0184,0.10565 -0.0276,0.22279 -0.0276,0.3514 z"
         id="path23523"
         style="fill:#000000"
         sodipodi:nodetypes="cccsccccccssccccccccccccccccccccccccccscsccccccccccc" />
      <path
         d="m 148.46787,101.31494 c 0.1424,0 0.45476,0.14699 0.93707,0.44097 0.69821,0.49609 1.04731,0.95544 1.04731,1.37804 0.0919,0.18833 0.19292,0.62011 0.30317,1.29535 0.0505,0 0.10565,0.27561 0.16536,0.82682 -0.0551,0.62931 -0.0827,0.96004 -0.0827,0.99219 0.0367,0.12861 0.0551,0.22967 0.0551,0.30317 0,0.0184 -0.009,0.0276 -0.0276,0.0276 l 0.0276,0.1378 v 0.19293 c 0,0.0459 -0.0368,0.14699 -0.11024,0.30317 l 0.0276,0.1378 c 0,0.0184 -0.009,0.0276 -0.0276,0.0276 l 0.0276,0.11024 -0.0276,0.24805 c 0,0.0138 0.009,0.0689 0.0276,0.16536 l -0.0276,0.13781 c 0.0184,0.0367 0.0276,0.0643 0.0276,0.0827 v 0.0827 c 0.0184,0 0.0276,0.009 0.0276,0.0276 0.50987,-0.38585 0.99678,-0.57877 1.46072,-0.57877 0.68442,0 1.37344,0.41341 2.06705,1.24023 0.27561,0.44097 0.41341,0.94625 0.41341,1.51584 v 0.0827 h -0.0276 l 0.0276,0.0551 -0.22048,1.13 c -0.13321,0.38585 -0.29858,0.67064 -0.4961,0.85438 -0.0551,0.16537 -0.2205,0.35829 -0.49609,0.57877 -0.0413,0 -0.46393,0.24805 -1.26779,0.74414 -0.54203,0.22508 -0.95545,0.34451 -1.24024,0.35829 h -0.0827 c -0.10105,0 -0.42259,-0.17455 -0.96462,-0.52365 v 0.0276 l 0.0276,0.24805 -0.0827,0.0551 h -0.0551 c -0.64767,-0.17455 -1.09783,-0.43179 -1.35047,-0.7717 0.0367,-0.0229 0.11023,-0.46391 0.22048,-1.32292 0.0138,-0.005 0.0506,-0.11491 0.11024,-0.33073 0,-0.0184 -0.009,-0.0276 -0.0276,-0.0276 0.0919,-0.33073 0.18374,-0.87275 0.27561,-1.62608 0,-0.0184 -0.009,-0.0276 -0.0276,-0.0276 0.12862,-0.86357 0.23886,-1.72714 0.33073,-2.59071 0,-0.0184 -0.009,-0.0276 -0.0276,-0.0276 0,-0.0413 0.0368,-0.3445 0.11024,-0.90951 0,-0.0367 -0.009,-0.0551 -0.0276,-0.0551 l 0.0276,-0.33073 v -0.44097 l 0.0276,-0.16536 -0.0276,-0.0551 c 0,-0.0367 0.009,-0.0551 0.0276,-0.0551 0,-0.68442 -0.1378,-1.63067 -0.41341,-2.83875 -0.0873,-0.27561 -0.31695,-0.57878 -0.68902,-0.90951 -0.0367,-0.005 -0.0643,-0.0598 -0.0827,-0.16536 z m 1.76389,10.94161 v 0.16537 l -0.0827,0.1378 0.0276,0.0551 c -0.0735,0.17915 -0.12861,0.39963 -0.16536,0.66146 0.0505,0.0413 0.15159,0.0781 0.30316,0.11024 1.11162,-0.24805 1.98438,-0.70739 2.61827,-1.37804 0.51447,-0.70279 0.7717,-1.45612 0.7717,-2.25998 h 0.0276 l -0.0276,-0.0551 c 0,-0.0184 0.009,-0.0276 0.0276,-0.0276 -0.0735,-0.73495 -0.22968,-1.10243 -0.46854,-1.10243 -0.0184,0 -0.0276,0.009 -0.0276,0.0276 l -0.1378,-0.0276 h -0.0276 c -0.29398,0 -0.61552,0.1378 -0.96463,0.41341 -0.39963,0.24805 -0.70279,0.57878 -0.9095,0.99219 -0.0873,0.0551 -0.22508,0.26643 -0.41341,0.6339 -0.27561,0.35369 -0.41342,0.62011 -0.41342,0.79926 -0.0919,0.24805 -0.1378,0.53284 -0.1378,0.85438 z"
         id="path23525"
         style="fill:#000000"
         sodipodi:nodetypes="ccccccsccscccccccsccscsccccccccscccccccccccccccccccccccccccccccccccsccscccccc" />
      <path
         d="m 156.0333,104.70491 h 0.0689 q 0.26871,0 0.73036,0.58566 0.0896,0.2136 0.0896,0.25494 l -0.20671,0.53743 v 0.0276 q 0.0413,0.39963 0.42031,0.8406 0.0482,0.0758 0.0482,0.1378 l -0.0482,0.0276 h -0.0276 q -0.21359,0 -0.74414,-0.37896 -0.42719,-0.25493 -0.68212,-0.72347 l -0.0207,-0.1378 q 0,-0.46853 0.30316,-0.81993 0.0207,-0.13092 0.0207,-0.19293 l -0.0207,-0.0413 q 0.0276,-0.11713 0.0689,-0.11713 z m 0.0207,3.34863 h 0.11713 q 0.47542,0.11713 0.96463,0.63389 0.0482,0.33073 0.0482,0.48921 l -0.0276,0.0482 0.0482,0.2825 q -0.062,0.30317 -0.0965,0.72347 -0.1378,0.28938 -0.50987,1.5434 -0.37896,1.55718 -0.37896,1.68809 0,0.51677 0.14469,0.51677 0,0.0551 0.0689,0.1378 v 0.0482 q 0,0.0482 -0.0482,0.0482 h -0.0689 q -0.67523,-0.15847 -0.86816,-0.46853 -0.23427,-0.39274 -0.23427,-0.86816 v -0.37207 l 0.0207,-0.1447 -0.0207,-0.0413 q 0.0965,-0.82682 0.39963,-1.52273 0.42031,-1.22645 0.42031,-2.25309 v -0.2067 q 0,-0.0413 -0.0482,-0.1447 0.0345,-0.1378 0.0689,-0.1378 z"
         id="path23527"
         style="fill:#000000" />
      <path
         d="m 163.49537,106.19319 c 0.1378,0.11943 0.35828,0.52365 0.66145,1.21267 0.0184,0.16077 0.0276,0.26183 0.0276,0.30317 -0.0919,0.23427 -0.17455,0.51906 -0.24804,0.85438 -0.62931,0.53284 -1.1254,0.79926 -1.48828,0.79926 l -0.6339,0.11025 -0.19293,-0.0276 h -0.99218 c -0.38126,0.0413 -0.80386,0.418 -1.2678,1.12999 -0.20211,0.33532 -0.36747,0.74873 -0.49609,1.24023 0,0.17915 -0.0276,0.3537 -0.0827,0.52365 0,0.36748 0.0827,0.55122 0.24804,0.55122 0.16996,0.0551 0.36289,0.0827 0.57878,0.0827 0.48691,0 1.17593,-0.36748 2.06706,-1.10243 l 0.35829,-0.19292 c 0.0597,0.0367 0.10567,0.0551 0.1378,0.0551 v 0.11024 c -0.0551,0.0689 -0.0827,0.15158 -0.0827,0.24805 l 0.0551,0.0276 c 0,-0.0184 0.009,-0.0276 0.0276,-0.0276 0,0.0413 0.0367,0.10564 0.11024,0.19292 0,0.0781 -0.11943,0.33532 -0.35829,0.7717 0,0.16077 -0.33073,0.48232 -0.99218,0.96463 -0.10106,0.0551 -0.43179,0.11944 -0.99219,0.19292 -0.66605,-0.19292 -1.30914,-0.71657 -1.92925,-1.57096 -0.21589,-0.31695 -0.3537,-0.68442 -0.41341,-1.10243 v -0.33073 c 0,-0.44557 0.12862,-0.89572 0.38585,-1.35047 0.24805,-0.74873 0.61552,-1.2632 1.10243,-1.54341 0.1378,-0.20211 0.53284,-0.31235 1.18511,-0.33072 0.39503,0.0551 0.7717,0.0827 1.12999,0.0827 0.71658,0 1.26779,-0.25723 1.65364,-0.7717 0.18374,-0.39504 0.30317,-0.74414 0.35829,-1.04731 z"
         id="path23529"
         style="fill:#000000"
         sodipodi:nodetypes="ccccccccccccscccccccccccccscccsccc" />
      <path
         d="m 173.10718,102.41048 h 0.0276 c 0.22967,0.10565 0.42949,0.2802 0.59945,0.52365 0.36288,0.58337 0.54432,1.02664 0.54432,1.32981 0,0.17455 -0.0253,0.32154 -0.0758,0.44097 0,0.0184 0.007,0.0276 0.0207,0.0276 0,0.34451 -0.19981,0.74414 -0.59944,1.19889 -0.0643,0 -0.10568,0.0597 -0.12403,0.17915 -0.19752,0.19751 -0.43408,0.37895 -0.70969,0.54432 h -0.0207 c -0.19293,0 -0.4203,-0.22508 -0.68213,-0.67524 -0.0138,0 -0.0207,-0.0253 -0.0207,-0.0758 v -0.0551 c 0,-0.0505 0.085,-0.17226 0.25494,-0.36518 0,-0.0597 0.16536,-0.27563 0.49609,-0.64768 0.29858,-0.39963 0.44787,-0.72118 0.44787,-0.96463 0.0138,0 0.0207,-0.009 0.0207,-0.0276 l -0.0482,-0.0276 c -0.24805,0.0689 -0.60404,0.24346 -1.06797,0.52366 l -0.65457,0.54432 c -0.36289,0.24345 -0.69132,0.59256 -0.9853,1.04731 -0.0551,0.0275 -0.25495,0.33989 -0.59944,0.93707 -0.48231,0.6982 -0.78778,1.2609 -0.9164,1.68809 -0.33073,0.60634 -0.65227,1.41479 -0.96462,2.42535 -0.15618,0.74414 -0.24346,1.24712 -0.26183,1.50895 0,0.33073 0.062,0.49609 0.18603,0.49609 h 0.10336 c 0.47772,0 1.12999,-0.44327 1.95681,-1.32981 0.0827,-0.0827 0.20441,-0.16766 0.36518,-0.25493 0,-0.0505 0.19981,-0.18145 0.59944,-0.39274 0,-0.0459 0.17226,-0.16766 0.51677,-0.36518 0,-0.11943 0.32154,-0.25953 0.96462,-0.4203 0.023,-0.0138 0.085,-0.0207 0.18604,-0.0207 l 0.0482,0.0758 0.0551,-0.0276 h 0.0207 v 0.0551 c 0,0.0275 -0.0344,0.062 -0.10335,0.10335 l 0.0276,0.0482 v 0.0276 h -0.0482 v 0.0276 h 0.0482 c 0,-0.0184 0.009,-0.0276 0.0276,-0.0276 l 0.0276,0.0551 c -0.0643,0.005 -0.12634,0.0828 -0.18603,0.23427 -0.0919,0 -0.16078,0.11254 -0.20671,0.33762 -0.023,0 -0.0919,0.0689 -0.2067,0.20671 -0.24345,0.12402 -0.36518,0.23656 -0.36518,0.33761 -0.2113,0.15159 -0.31695,0.26642 -0.31695,0.34451 -0.0459,0.005 -0.12402,0.13328 -0.23427,0.38585 -0.37207,0.53285 -0.74414,0.87276 -1.11621,1.01975 l -0.55121,0.51677 c -0.13781,0.0873 -0.37207,0.18373 -0.7028,0.28938 -0.44097,0 -0.76941,-0.14699 -0.9853,-0.44097 -0.5604,-0.54203 -0.87505,-1.01975 -0.94395,-1.43316 -0.0781,-0.11483 -0.13781,-0.4203 -0.17915,-0.91639 0.0229,-0.44557 0.1883,-1.14837 0.49609,-2.1084 0.15618,-0.52825 0.29399,-0.90032 0.41342,-1.11621 0.0321,0 0.085,-0.13091 0.15847,-0.39274 0.2802,-0.68443 0.71428,-1.45842 1.30224,-2.32199 l 0.75792,-1.04042 c 0.0275,0 0.19979,-0.19982 0.51677,-0.59945 0.0597,0 0.24347,-0.15618 0.55121,-0.46853 0.36748,-0.2802 0.57648,-0.4203 0.62701,-0.4203 0.32154,-0.0965 0.59026,-0.23426 0.80615,-0.41341 0.22967,-0.0873 0.46394,-0.13091 0.7028,-0.13091 z"
         id="path23531"
         style="fill:#000000"
         sodipodi:nodetypes="cccscccccscssccccccccccccsscccccccccsccccccccccccccccccccccccccccccc" />
      <path
         d="m 173.67217,102.91346 h 0.16537 c 0.54203,0.17915 1.02664,0.60404 1.45383,1.27468 0.24805,0.58797 0.37207,1.07487 0.37207,1.46072 0,0.0919 -0.0184,0.33762 -0.0551,0.73725 0.0367,0.19293 0.0551,0.39734 0.0551,0.61323 l -0.10336,1.67431 h 0.0276 c 0.81305,-0.78089 1.45843,-1.17133 1.93615,-1.17133 h 0.15847 c 0.31235,0 0.69131,0.22967 1.13688,0.68902 0.37207,0.4226 0.55811,0.73266 0.55811,0.93018 l 0.0827,0.31694 -0.0276,0.13092 v 0.0827 c 0,0.43638 -0.12402,1.01056 -0.37207,1.72255 -0.0459,0 -0.0988,0.16077 -0.15848,0.48231 -0.0781,0.0919 -0.16766,0.36518 -0.26871,0.81993 -0.0275,0.0367 -0.10562,0.21358 -0.23427,0.53055 -0.2802,0.39044 -0.45705,0.58566 -0.53054,0.58566 h -0.11025 c -0.25723,-0.16995 -0.45016,-0.36517 -0.57877,-0.58566 0,-0.22049 0.31695,-1.25631 0.95084,-3.10748 l 0.18604,-0.81993 c 0,-0.0184 -0.009,-0.0276 -0.0276,-0.0276 l 0.0276,-0.18604 v -0.47542 h -0.0758 c -0.21589,0 -0.71199,0.27331 -1.48828,0.81993 -0.2113,0.19752 -0.53055,0.5604 -0.95774,1.08865 l -0.47542,0.74414 -0.2136,0.53055 c -0.10105,0.15158 -0.21589,0.30087 -0.34451,0.44786 -0.0643,0.12403 -0.1608,0.48691 -0.28939,1.08865 -0.0367,0 -0.0551,0.0528 -0.0551,0.15847 l 0.0551,0.18604 -0.0827,0.0551 c -0.33991,-0.0459 -0.73725,-0.25723 -1.192,-0.6339 -0.0873,-0.11024 -0.1401,-0.19981 -0.15847,-0.26871 l 0.50298,-1.53652 c 0,-0.0597 0.0276,-0.16538 0.0827,-0.31694 l -0.0276,-0.11025 c 0.19293,-0.47772 0.3514,-1.13229 0.47542,-1.9637 0.0367,-0.37667 0.0896,-0.68443 0.15848,-0.92328 v -0.2136 c 0,-0.0184 0.009,-0.0276 0.0276,-0.0276 l -0.0276,-0.0551 c 0.0459,-0.32155 0.0919,-0.70969 0.1378,-1.16444 l -0.0276,-0.0551 0.0758,-0.47542 v -0.61323 c 0,-0.45934 -0.10565,-1.00596 -0.31695,-1.63986 -0.0735,-0.16996 -0.22278,-0.35599 -0.44786,-0.5581 l -0.0276,-0.18604 c 0.005,-0.0367 0.0207,-0.0551 0.0482,-0.0551 z"
         id="path23533"
         style="fill:#000000"
         sodipodi:nodetypes="cccsccccssccccsccccscccccccsccccccccccccccccscccccscccsc" />
      <path
         d="m 184.17282,108.31536 c 0.33073,0 0.68901,0.24805 1.07486,0.74414 v 0.0827 c -0.0367,0.0735 -0.17454,0.62471 -0.41341,1.65364 -0.22049,0.67524 -0.36748,1.21727 -0.44097,1.62609 v 0.11024 c 0.0597,0.66146 0.11486,0.99219 0.16537,0.99219 h 0.0276 c 0.20211,-0.0367 0.31236,-0.0551 0.33073,-0.0551 l 0.11024,0.0276 0.0551,-0.0276 c 0.0735,0.0275 0.11024,0.0551 0.11024,0.0827 v 0.1378 c 0,0.0873 -0.0276,0.15158 -0.0827,0.19292 l 0.0276,0.0551 c 0,0.023 -0.0735,0.0965 -0.22048,0.22048 h -0.19293 c -0.38585,-0.0965 -0.72576,-0.28938 -1.01975,-0.57877 -0.14699,-0.17915 -0.22048,-0.29858 -0.22048,-0.35829 h -0.0276 l -0.41341,0.57877 c -0.22049,0.27561 -0.52366,0.41341 -0.90951,0.41341 -0.76251,0 -1.43316,-0.33991 -2.01193,-1.01974 -0.18374,-0.36289 -0.27561,-0.7028 -0.27561,-1.01975 l 0.0276,-0.0551 -0.0276,-0.0551 c 0.0597,-0.70739 0.18835,-1.36885 0.38585,-1.98438 0.34451,-1.02434 0.59255,-1.57555 0.74414,-1.65364 l 0.0551,-0.0276 c 0.31235,0 0.64308,0.20211 0.99219,0.60633 v 0.0551 c -0.1424,0.39045 -0.25264,0.7763 -0.33073,1.15756 -0.31235,0.80385 -0.46853,1.63986 -0.46853,2.50802 v 0.0827 c 0,0.0184 -0.009,0.0276 -0.0276,0.0276 0.10105,0.38125 0.16536,0.57418 0.19292,0.57877 0.28479,0 0.61552,-0.28479 0.99219,-0.85438 0.40422,-0.75333 0.60633,-1.16674 0.60633,-1.24023 0.18374,-0.31695 0.37667,-0.7763 0.57878,-1.37804 l 0.46853,-1.32292 c 0,-0.16077 0.0459,-0.26182 0.13781,-0.30317 z"
         id="path23535"
         style="fill:#000000"
         sodipodi:nodetypes="ccccccsccccssccccccccsccccccccccsscccccccc" />
      <path
         d="m 190.39465,108.39116 h 0.10336 c 0.18373,0 0.38355,0.14699 0.59944,0.44097 v 0.0276 c -0.14699,0.16077 -0.40652,0.31695 -0.77859,0.46853 l -0.49609,0.39274 c -0.32613,0.34451 -0.55121,0.51677 -0.67524,0.51677 -0.4226,0.45475 -0.68213,0.81763 -0.77859,1.08865 -0.4226,0.47312 -0.68213,0.89801 -0.77859,1.27468 -0.10565,0.39504 -0.15848,0.86357 -0.15848,1.4056 l 0.0276,0.17914 -0.0482,0.0276 h -0.15847 c -0.39963,-0.0413 -0.82453,-0.24804 -1.27469,-0.62011 -0.0321,-0.11484 -0.0482,-0.18604 -0.0482,-0.2136 l 0.12403,-0.51676 c 0,-0.0184 -0.007,-0.0437 -0.0207,-0.0758 0.0138,-0.53285 0.0482,-0.99219 0.10335,-1.37804 v -0.39274 c 0,-0.61093 -0.12173,-1.38953 -0.36518,-2.33578 v -0.0276 c 0.0413,-0.0321 0.0758,-0.0482 0.10335,-0.0482 0.17455,0 0.47772,0.11254 0.90951,0.33762 0.23427,0.22967 0.39044,0.51447 0.46853,0.85438 0.009,0 0.0345,0.15618 0.0758,0.46854 h 0.0551 c 0.15618,-0.12862 0.30317,-0.31006 0.44097,-0.54433 0.34911,-0.33532 0.61783,-0.55351 0.80616,-0.65457 0.73495,-0.45015 1.32291,-0.67523 1.76388,-0.67523 z"
         id="path23537"
         style="fill:#000000"
         sodipodi:nodetypes="csccccccccccccccccsccscccccccc" />
      <path
         d="m 196.43734,106.19319 c 0.13781,0.11943 0.35829,0.52365 0.66146,1.21267 0.0184,0.16077 0.0276,0.26183 0.0276,0.30317 -0.0919,0.23427 -0.17455,0.51906 -0.24804,0.85438 -0.62931,0.53284 -1.1254,0.79926 -1.48828,0.79926 l -0.6339,0.11025 -0.19293,-0.0276 h -0.99218 c -0.38126,0.0413 -0.80386,0.418 -1.2678,1.12999 -0.20211,0.33532 -0.36748,0.74873 -0.49609,1.24023 0,0.17915 -0.0276,0.3537 -0.0827,0.52365 0,0.36748 0.0827,0.55122 0.24804,0.55122 0.16996,0.0551 0.36289,0.0827 0.57878,0.0827 0.48691,0 1.17592,-0.36748 2.06705,-1.10243 l 0.35829,-0.19292 c 0.0597,0.0367 0.10567,0.0551 0.13781,0.0551 v 0.11024 c -0.0551,0.0689 -0.0827,0.15158 -0.0827,0.24805 l 0.0551,0.0276 c 0,-0.0184 0.009,-0.0276 0.0276,-0.0276 0,0.0413 0.0367,0.10564 0.11024,0.19292 0,0.0781 -0.11943,0.33532 -0.35829,0.7717 0,0.16077 -0.33073,0.48232 -0.99219,0.96463 -0.10105,0.0551 -0.43178,0.11944 -0.99218,0.19292 -0.66605,-0.19292 -1.30914,-0.71657 -1.92925,-1.57096 -0.21589,-0.31695 -0.3537,-0.68442 -0.41342,-1.10243 v -0.33073 c 0,-0.44557 0.12862,-0.89572 0.38586,-1.35047 0.24805,-0.74873 0.61552,-1.2632 1.10242,-1.54341 0.13781,-0.20211 0.53285,-0.31235 1.18512,-0.33072 0.39503,0.0551 0.7717,0.0827 1.12999,0.0827 0.71658,0 1.26779,-0.25723 1.65364,-0.7717 0.18374,-0.39504 0.30317,-0.74414 0.35829,-1.04731 z"
         id="path23539"
         style="fill:#000000"
         sodipodi:nodetypes="ccccccccccccscccccccccccccscccsccc" />
      <path
         d="m 196.53381,102.91346 h 0.16536 c 0.54203,0.17915 1.02664,0.60404 1.45383,1.27468 0.24805,0.58797 0.37207,1.07487 0.37207,1.46072 0,0.0919 -0.0184,0.33762 -0.0551,0.73725 0.0367,0.19293 0.0551,0.39734 0.0551,0.61323 l -0.10335,1.67431 h 0.0276 c 0.81304,-0.78089 1.45842,-1.17133 1.93614,-1.17133 h 0.15847 c 0.31236,0 0.69132,0.22967 1.13689,0.68902 0.37207,0.4226 0.5581,0.73266 0.5581,0.93018 l 0.0827,0.31694 -0.0276,0.13092 v 0.0827 c 0,0.43638 -0.12402,1.01056 -0.37207,1.72255 -0.0459,0 -0.0988,0.16077 -0.15847,0.48231 -0.0781,0.0919 -0.16767,0.36518 -0.26872,0.81993 -0.0275,0.0367 -0.10562,0.21358 -0.23427,0.53055 -0.2802,0.39044 -0.45705,0.58566 -0.53054,0.58566 h -0.11024 c -0.25723,-0.16995 -0.45016,-0.36517 -0.57878,-0.58566 0,-0.22049 0.31695,-1.25631 0.95085,-3.10748 l 0.18603,-0.81993 c 0,-0.0184 -0.009,-0.0276 -0.0276,-0.0276 l 0.0276,-0.18604 v -0.47542 h -0.0758 c -0.21589,0 -0.71199,0.27331 -1.48828,0.81993 -0.2113,0.19752 -0.53055,0.5604 -0.95774,1.08865 l -0.47542,0.74414 -0.21359,0.53055 c -0.10106,0.15158 -0.2159,0.30087 -0.34451,0.44786 -0.0643,0.12403 -0.1608,0.48691 -0.28939,1.08865 -0.0367,0 -0.0551,0.0528 -0.0551,0.15847 l 0.0551,0.18604 -0.0827,0.0551 c -0.33992,-0.0459 -0.73726,-0.25723 -1.19201,-0.6339 -0.0873,-0.11024 -0.1401,-0.19981 -0.15847,-0.26871 l 0.50298,-1.53652 c 0,-0.0597 0.0276,-0.16538 0.0827,-0.31694 l -0.0276,-0.11025 c 0.19293,-0.47772 0.3514,-1.13229 0.47543,-1.9637 0.0367,-0.37667 0.0896,-0.68443 0.15847,-0.92328 v -0.2136 c 0,-0.0184 0.009,-0.0276 0.0276,-0.0276 l -0.0276,-0.0551 c 0.0459,-0.32155 0.0919,-0.70969 0.13781,-1.16444 l -0.0276,-0.0551 0.0758,-0.47542 v -0.61323 c 0,-0.45934 -0.10565,-1.00596 -0.31695,-1.63986 -0.0735,-0.16996 -0.22279,-0.35599 -0.44786,-0.5581 l -0.0276,-0.18604 c 0.005,-0.0367 0.0207,-0.0551 0.0482,-0.0551 z"
         id="path23541"
         style="fill:#000000"
         sodipodi:nodetypes="cccsccccssccccsccccscccccccsccccccccccccccccscccccscccsc" />
    </g>
  </g>
</svg>
