<?xml version="1.0" encoding="UTF-8" standalone="no"?>
<!-- Created with Inkscape (http://www.inkscape.org/) -->

<svg
   width="440.31216"
   height="75.598602"
   viewBox="0 0 116.49926 20.00213"
   version="1.1"
   id="svg5"
   sodipodi:docname="fac.svg"
   inkscape:version="1.1 (c68e22c387, 2021-05-23)"
   xmlns:inkscape="http://www.inkscape.org/namespaces/inkscape"
   xmlns:sodipodi="http://sodipodi.sourceforge.net/DTD/sodipodi-0.dtd"
   xmlns="http://www.w3.org/2000/svg"
   xmlns:svg="http://www.w3.org/2000/svg">
  <sodipodi:namedview
     id="namedview7"
     pagecolor="#505050"
     bordercolor="#eeeeee"
     borderopacity="1"
     inkscape:pageshadow="0"
     inkscape:pageopacity="0"
     inkscape:pagecheckerboard="0"
     inkscape:document-units="px"
     showgrid="false"
     inkscape:zoom="1.28"
     inkscape:cx="457.03125"
     inkscape:cy="135.54688"
     inkscape:window-width="1920"
     inkscape:window-height="1027"
     inkscape:window-x="-8"
     inkscape:window-y="-8"
     inkscape:window-maximized="1"
     inkscape:current-layer="layer1"
     showguides="true" />
  <defs
     id="defs2" />
  <g
     inkscape:label="Layer 1"
     inkscape:groupmode="layer"
     id="layer1"
     transform="translate(-0.430406,-0.24806)">
    <g
       aria-label="Friendly Arabic Church"
       id="text1265"
       style="font-size:14.1111px;line-height:1.25;font-family:'Arabic Magic';-inkscape-font-specification:'Arabic Magic, Normal';stroke-width:0.264583"
       transform="translate(-85.708861,-100.61901)">
      <path
         d="m 92.919198,100.86707 h 0.0689 q 0.124023,0.0827 0.124023,0.0965 l 0.04823,-0.0207 h 0.02067 l 0.241157,0.38585 h 0.02756 l -0.02756,0.0482 v 0.0207 q 0.07579,0.0965 0.07579,0.14469 -0.02756,0 -0.144694,0.31695 -0.316949,0.36518 -0.606337,0.36518 -0.186035,0 -0.434081,-0.43408 -0.02067,-0.0965 -0.02067,-0.19982 0,-0.4892 0.406521,-0.64767 0.09646,-0.0758 0.220486,-0.0758 z m -2.535588,0.48232 q 0.234266,0 0.482313,0.41341 0,0.0276 -0.02067,0.0276 l 0.02067,0.0482 v 0.2136 q -0.296278,0.60633 -0.627007,0.60633 h -0.02067 q -0.413411,-0.37896 -0.413411,-0.57877 v -0.22049 q 0.02067,-0.41341 0.337619,-0.41341 0,-0.0482 0.241157,-0.0965 z m 4.07899,0.0965 h 0.124023 q 0.144694,0.16536 0.289388,0.46164 0.07579,0.22049 0.117133,0.22049 v 0.11713 q 0,0.0276 -0.02067,0.0276 0.01378,0.1447 0.0689,0.1447 v 0.0207 q -0.05512,0.0758 -0.0689,0.22048 0.02067,0 0.02067,0.0207 -0.275608,0.50988 -0.38585,0.62701 -1.274685,0.75103 -1.639865,0.75103 -0.06201,0.0551 -0.482313,0.16536 0,0.0276 -0.02756,0.0276 h -0.04823 q -0.04823,0 -0.09646,-0.0276 -0.103353,0.0758 -0.840603,0.19293 0,0.0276 -0.02756,0.0276 h -0.02067 q -0.02756,0 -0.02756,-0.0276 -0.02067,0.0276 -0.310058,0.0482 -0.434082,-0.0551 -0.434082,-0.0965 l -0.04823,0.0276 q -0.199816,-0.12402 -0.268718,-0.12402 v 0.0276 q 0.144694,0.58566 0.220486,1.06109 h -0.02756 l 0.02756,0.0482 v 0.11713 l -0.02756,0.0482 0.04823,0.0276 q -0.02067,0.12402 -0.02067,0.1447 0.04134,0.53054 0.117134,0.53054 l -0.09646,0.2136 v 0.17225 q 0,0.0965 0.02756,0.19293 -0.02756,0.0896 -0.02756,0.19292 v 0.0207 q 0.179145,0.0758 0.38585,0.0758 h 0.192926 q 0.02756,0 0.02756,0.0207 l 0.04823,-0.0207 q 0.434081,-0.0276 0.578775,-0.0276 0,0.062 0.310059,0.12403 v 0.0207 l 0.124023,-0.0207 h 0.117133 l 0.192925,0.21359 q 0.04134,0.0827 0.07579,0.22049 0,0.38585 -0.192925,0.53054 -0.227376,0.38585 -0.434082,0.38585 -0.261827,0.16537 -0.461642,0.16537 -0.130914,0 -0.261827,0.0276 -0.02756,0 -0.02756,-0.0276 -0.08268,0.0276 -0.09646,0.0276 -0.234267,0 -0.744141,-0.1447 -0.289387,0.85439 -0.434081,1.49517 -0.289388,0.40652 -0.627007,0.99219 -0.117133,0 -0.241157,0.40652 -0.516764,0.80615 -0.627007,0.9164 -0.06201,0 -0.268717,0.46164 -0.117133,0.0482 -0.165364,0.16536 -0.117133,0.0827 -0.316949,0.43408 -0.158474,0.17226 -0.406521,0.28939 0,0.11025 -0.413411,0.41341 -0.04823,0 -0.165364,0.0965 -0.186035,0 -0.385851,0.16536 l -0.04823,-0.0207 -0.124023,0.0207 -0.04823,-0.0689 q 0.06201,-0.1447 0.09646,-0.1447 l -0.02067,-0.0482 v -0.0276 q 0.213596,-0.25493 0.385851,-0.627 0.241156,-0.22738 0.310058,-0.40652 l 0.07579,-0.0482 -0.02756,-0.0482 q 0.537435,-0.73036 0.675239,-1.10932 l 0.172254,-0.31695 q 0.661458,-1.26779 0.868164,-1.80522 0.337619,-0.99219 0.482313,-1.81212 0,-0.0276 -0.02756,-0.0276 0.144694,-0.9853 0.144694,-1.88102 l -0.02067,-0.0482 q 0,-0.0207 0.02067,-0.0207 -0.117133,-1.192 -0.482313,-2.17041 -0.282498,-0.42719 -0.530544,-0.46164 0,-0.0482 -0.241157,-0.16536 0,-0.0345 -0.35829,-0.36518 0,-0.15848 -0.124023,-0.33762 v -0.0207 q 0,-0.0344 0.07579,-0.0758 0.289388,0 0.792371,0.17225 1.653645,0.48231 2.556259,0.48231 l 0.124024,-0.0482 0.04823,0.0207 q 0.36518,-0.0482 1.350476,-0.33762 0.04823,0.0276 0.0689,0.0276 0.902615,-0.28938 1.040418,-0.53054 0.289388,-0.15158 0.36518,-0.24116 0.05512,0 0.337619,-0.36518 z"
         id="path23503"
         style="fill:#000000" />
      <path
         d="m 94.689976,107.30251 q 0.516764,0.17225 0.516764,0.44097 v 0.15847 q 0,0.22738 -0.413411,0.54433 h -0.02756 q -0.599446,-0.16537 -0.599446,-0.59945 v -0.0276 q 0,-0.16536 0.316948,-0.4892 0.137804,-0.0276 0.206706,-0.0276 z m 2.570039,1.08865 h 0.103353 q 0.275607,0 0.599446,0.44097 v 0.0276 q -0.220486,0.24116 -0.778591,0.46853 L 96.68813,109.721 q -0.489203,0.51677 -0.675238,0.51677 -0.633897,0.68212 -0.778591,1.08865 -0.633897,0.70968 -0.778591,1.27468 -0.158475,0.59256 -0.158475,1.4056 l 0.02756,0.17914 -0.04823,0.0276 h -0.158474 q -0.599447,-0.062 -1.274685,-0.62011 -0.04823,-0.17226 -0.04823,-0.2136 l 0.124023,-0.51676 q 0,-0.0276 -0.02067,-0.0758 0.02067,-0.79927 0.103352,-1.37804 v -0.39274 q 0,-0.9164 -0.365179,-2.33578 v -0.0276 q 0.06201,-0.0482 0.103352,-0.0482 0.261827,0 0.909505,0.33762 0.351399,0.34451 0.468533,0.85438 0.01378,0 0.07579,0.46854 h 0.05512 q 0.234266,-0.19293 0.440972,-0.54433 0.523654,-0.50298 0.806152,-0.65457 1.102429,-0.67523 1.763887,-0.67523 z"
         id="path23505"
         style="fill:#000000" />
      <path
         d="m 98.224641,104.70491 h 0.0689 q 0.268717,0 0.730359,0.58566 0.08957,0.2136 0.08957,0.25494 l -0.206706,0.53743 v 0.0276 q 0.04134,0.39963 0.420302,0.8406 0.04823,0.0758 0.04823,0.1378 l -0.04823,0.0276 h -0.02756 q -0.213596,0 -0.74414,-0.37896 -0.427192,-0.25493 -0.682129,-0.72347 l -0.02067,-0.1378 q 0,-0.46853 0.303168,-0.81993 0.02067,-0.13092 0.02067,-0.19293 l -0.02067,-0.0413 q 0.02756,-0.11713 0.0689,-0.11713 z m 0.02067,3.34863 h 0.117133 q 0.475422,0.11713 0.964626,0.63389 0.04823,0.33073 0.04823,0.48921 l -0.02756,0.0482 0.04823,0.2825 q -0.06201,0.30317 -0.09646,0.72347 -0.137804,0.28938 -0.509874,1.5434 -0.37896,1.55718 -0.37896,1.68809 0,0.51677 0.144694,0.51677 0,0.0551 0.0689,0.1378 v 0.0482 q 0,0.0482 -0.04823,0.0482 h -0.0689 Q 97.831901,114.0548 97.638976,113.74474 97.40471,113.352 97.40471,112.87658 v -0.37207 l 0.02067,-0.1447 -0.02067,-0.0413 q 0.09646,-0.82682 0.399631,-1.52273 0.420301,-1.22645 0.420301,-2.25309 v -0.2067 q 0,-0.0413 -0.04823,-0.1447 0.03445,-0.1378 0.0689,-0.1378 z"
         id="path23507"
         style="fill:#000000" />
      <path
         d="m 102.6757,105.16655 q 0.78548,0 1.01975,0.565 0,0.0758 0.13091,0.75103 h 0.0276 q 0,0.40652 -0.50987,0.81304 -0.11024,0.15847 -0.3514,0.15847 -0.41341,-0.25494 -0.66835,-1.07487 -0.0827,-0.29628 -0.0827,-0.3514 v -0.0551 q 0,-0.48231 0.43408,-0.80615 z m -1.28846,1.78456 h 0.0551 q 0.37207,0.21359 0.59255,1.08176 v 0.13091 q -0.37207,0.55811 -1.10243,1.07487 -0.45475,0.45475 -0.53743,0.86127 0.0207,0.0551 0.0207,0.0827 h 0.11024 q 0.15159,-0.39275 0.88884,-1.07487 0.93017,-0.78549 1.10243,-0.78549 0.79926,-0.50987 1.4745,-0.50987 0.85438,0 1.12999,0.80615 0.26871,0.59256 0.26871,1.10243 0,0.3514 -0.77859,0.86128 -0.17225,0.24115 -0.83371,0.46164 -0.45475,0.39274 -1.42627,0.61322 -0.25493,0.0827 -0.31695,0.0827 -0.12402,0 -0.59255,-0.0276 -0.0551,0.0276 -0.0827,0.0276 -0.0413,-0.0276 -0.13092,-0.0276 h -0.0551 q -0.24116,0.31005 -0.24116,0.75103 v 0.16536 q 0.17915,0.48231 0.96463,0.48231 h 0.0276 q 1.09554,0 2.5287,-0.64767 0.28939,-0.10336 0.93706,-0.45476 l 0.16537,-0.0276 h 0.0758 q 0,0.0276 0.0276,0.0827 l 0.0551,-0.0276 q 0.0551,0.007 0.0551,0.0551 -0.15158,0.15847 -0.21359,0.15847 0,0.0276 0.0276,0.0276 -0.0207,0.11713 -0.11024,0.15848 -0.13092,0.29627 -0.37896,0.29627 -0.17226,0.53055 -0.50988,0.67524 -0.0345,0.0344 -0.24115,0.13092 v 0.0276 q 0.0276,0 0.0276,0.0276 -0.62701,0.34451 -1.18512,0.46164 v -0.0276 q -0.17914,0.10335 -0.83371,0.18603 -0.28939,-0.0138 -0.28939,-0.0551 l -0.0551,0.0276 h -0.0276 q -0.4203,0 -0.59255,-0.18603 -0.58567,-0.48921 -0.77859,-0.97152 -0.40653,-0.78548 -0.40653,-1.44694 v -0.19292 q 0,-0.0965 0.0276,-0.24116 0,-0.11713 -0.399635,-0.64079 -0.378961,-0.72347 -0.378961,-0.86127 h 0.02756 l -0.02756,-0.0551 0.02756,-0.0551 q 0,-0.0551 -0.02756,-0.0551 0,-0.83372 0.482313,-1.23335 0,-0.1378 0.378963,-0.43408 0.19981,-0.0345 1.07487,-0.86127 z m 1.10243,3.06613 0.0276,0.0551 q 0.79237,-0.24115 1.58474,-0.75103 l 0.18603,-0.16536 v -0.0276 h -0.0758 q -0.627,0.14469 -0.80615,0.29627 -0.59256,0.32384 -0.91639,0.59256 z"
         id="path23509"
         style="fill:#000000" />
      <path
         d="m 108.36699,106.52392 q 0.37896,0.0965 0.52366,0.33073 0.11024,0.16536 0.11024,0.46853 v 0.0276 q -0.24116,0.50987 -0.44097,0.60634 -0.38585,-0.13781 -0.68902,-0.6339 v -0.0551 q 0.14469,-0.60634 0.38585,-0.74414 z m 3.25217,0.2756 q 0.47542,0 0.68902,0.60634 v 0.0827 q 0,0.60634 -0.41341,0.71658 -0.15159,-0.0138 -0.44097,-0.33073 -0.30317,-0.19981 -0.30317,-0.55121 0,-0.27561 0.41341,-0.52366 z m -5.898,0.44098 q 0.32384,0 0.68902,0.30316 0.34451,0.2825 0.7717,0.71658 0.31006,0.32384 0.68902,1.18512 0.10335,-0.0482 0.30317,-0.41342 0.0827,0 0.35829,-0.35829 0.53743,-0.46853 1.15755,-0.46853 0.0827,0 0.19292,-0.0276 0.77171,0 1.57097,0.85438 0.7717,0.81994 0.7717,1.43316 0.0551,0.24805 0.0551,0.35829 h -0.0276 l 0.0276,0.0551 v 0.0827 q -0.0551,0.19292 -0.0551,0.22048 v 0.27561 q -0.24805,1.35048 -0.52366,1.6812 0,0.12403 -0.33073,0.71658 0,0.13781 -0.0827,0.13781 h -0.0551 q -0.37896,0 -0.96463,-0.68902 v -0.11024 q 0.28939,-0.46854 0.71658,-1.92926 0.0965,-0.82682 0.13781,-0.82682 l -0.0276,-0.27561 v -0.19292 q -0.0965,-0.71658 -0.27561,-0.71658 -0.15158,-0.0276 -0.24805,-0.0276 -0.82682,0.27561 -0.82682,0.46853 -0.27561,0.19293 -1.01975,1.24024 0,0.11713 -0.24804,0.57877 -0.24805,0.54433 -0.33073,0.85438 -0.17915,0.23427 -0.30317,1.12999 l 0.0276,0.0551 q -0.0827,0.26871 -0.11024,0.49609 l 0.0276,0.0551 v 0.0551 q 0,0.0551 -0.0551,0.0551 h -0.13781 q -0.14469,0 -0.74414,-0.33073 -0.14469,-0.007 -0.60633,-0.49609 0,-0.40652 0.24804,-0.93706 -0.0276,-0.0551 -0.0276,-0.0827 0,-0.46853 0.0827,-0.46853 l -0.0276,-0.0551 v -0.0827 q 0,-0.0276 0.0276,-0.0276 l -0.0276,-0.0551 0.0276,-0.0551 -0.0276,-0.0551 q 0.0551,-0.17914 0.0551,-0.22048 0,-0.0276 -0.0276,-0.0276 l 0.0551,-0.6339 -0.0276,-0.0551 q 0.0551,-0.13092 0.0551,-0.33073 0,-0.86817 -0.35829,-1.92925 -0.11025,-0.10336 -0.33073,-0.60634 -0.27561,-0.19982 -0.27561,-0.44097 v -0.0276 q 0.007,-0.0551 0.0551,-0.0551 z"
         id="path23511"
         style="fill:#000000" />
      <path
         d="m 120.76244,101.09445 v 0.0276 l 0.0551,-0.0276 q 0.19293,0.0482 0.43408,0.48231 0.18604,0.31695 0.18604,0.565 -0.12403,0.3514 -0.40652,0.3514 -0.2136,0.14469 -0.58567,0.7028 -0.34451,0.29627 -0.7028,0.9095 0,0.0413 -0.64768,1.48139 -0.21359,0.59256 -0.83371,2.79742 -0.22048,0.39963 -0.34451,1.24023 l 0.0207,0.0482 q -0.34451,1.15066 -0.45475,2.23931 -0.0482,0 -0.0551,0.13092 0,0.13091 -0.0276,0.62011 0,0.0965 0.19292,0.24116 h 0.0758 q 0.35139,0 1.02663,-0.53744 0.0138,0 0.10336,-0.0276 0,0.0551 0.1378,0.15848 v 0.22048 l 0.0276,0.13092 q -0.0482,0 -0.11024,0.19292 0.11024,0 0.11024,0.0482 -0.13091,0.12403 -0.40652,0.64768 -0.2136,0.15848 -0.45475,0.15848 -0.55811,-0.1447 -1.21268,-0.85439 -0.28938,-0.25493 -0.42719,-0.64768 h -0.0276 q -0.49609,0.7028 -0.59255,0.72347 -0.50299,0.37896 -0.94396,0.37896 l -0.0551,-0.0276 q -0.0276,0 -0.0758,0.0276 -0.61323,0 -1.34359,-0.94395 -0.53054,-0.55811 -0.64768,-1.28847 l -0.0551,-0.21359 q 0,-0.0276 0.0276,-0.0276 l -0.0276,-0.11025 q 0,-1.38492 1.28847,-2.92832 0.97151,-0.75792 1.59163,-0.75792 0.4203,-0.10336 0.69591,-0.10336 0.33073,0 0.75792,0.10336 h 0.0276 q 0.37207,-1.29536 0.64079,-1.96371 0.7028,-2.13596 1.12999,-2.5287 0.25493,-0.48231 0.40652,-0.59255 0.33762,-0.40652 0.88883,-0.75103 0.18604,-0.29628 0.61323,-0.29628 z m -4.78868,3.41753 h 0.0276 q 0.34451,0.0689 0.64768,0.37896 0.11713,0.16537 0.15847,0.42719 -0.12402,0.88884 -0.58566,0.88884 h -0.0276 q -0.80616,-0.11714 -0.80616,-0.77859 0.0344,-0.27561 0.37207,-0.7028 0,-0.2136 0.2136,-0.2136 z m -2.33577,0.80615 q 0.93706,0.18604 0.93706,0.69591 -0.16536,0.40652 -0.34451,0.46165 -0.0482,0.0276 -0.11024,0.0276 -0.83371,-0.17226 -0.83371,-0.565 v -0.11024 q 0.0827,-0.50988 0.3514,-0.50988 z m 0.21359,6.00136 q 0.0276,0.0482 0.0276,0.0758 h -0.0276 q 0,0.0276 0.0276,0.0276 -0.0276,0.15158 -0.0276,0.21359 0,0.0345 0.0276,0.0827 0,0.062 -0.0827,0.46164 0.0413,0.21359 0.43408,0.21359 h 0.26872 q 0.69591,0 1.63986,-0.83371 l 0.13092,-0.0551 q -0.0276,-0.36518 -0.0276,-0.53743 0.0827,-1.07487 0.37896,-2.10151 l 0.11024,-0.39963 q -0.0276,0 -0.0276,-0.0276 -0.51676,0.0827 -1.02664,0.37896 -0.24115,0 -0.93706,0.75103 -0.79238,1.08865 -0.86128,1.72254 -0.0276,0 -0.0276,0.0276 z"
         id="path23513"
         style="fill:#000000" />
      <path
         d="m 121.38945,102.43115 h 0.0276 q 0.48231,0.0965 1.0473,0.80615 0.12403,0.17914 0.12403,1.01975 0,0.38585 -0.12403,1.06797 0,0.57189 -0.13091,0.93707 l 0.0207,0.0551 q -0.16536,0.75792 -0.41341,1.30225 -0.15847,0.56499 -0.20671,0.67523 0.0207,0.0482 0.0207,0.10336 -0.0827,0.0413 -0.17915,0.59944 -0.68213,1.74322 -0.86127,2.39779 -0.28939,0.53054 -0.28939,0.88883 -0.11713,0.11024 -0.25494,1.09554 0,0.28939 0.17915,0.28939 0.18603,0.15847 0.18603,0.33762 v 0.0758 q -0.0207,0.062 -0.18603,0.13091 -0.87506,-0.36518 -1.01975,-0.7028 -0.0758,0 -0.17914,-0.68212 0.0276,-0.38585 0.0551,-0.41341 l -0.0276,-0.0551 q 0,-0.47542 1.11621,-3.83094 0.68212,-2.35644 0.68212,-2.65961 0.11025,-0.0896 0.23427,-1.04042 0.062,0 0.17915,-1.09554 0,-0.0276 -0.0207,-0.0758 0.0207,-0.17915 0.0207,-0.28939 0,-0.0276 -0.0207,-0.0758 l 0.0207,-0.15847 q 0,-0.062 -0.0207,-0.10336 l 0.0207,-0.0551 q -0.0758,-0.27561 -0.0758,-0.33762 v -0.13091 q 0,-0.0345 0.0758,-0.0758 z m -1.09554,0.44097 h 0.0551 q 0.39274,0 0.54432,0.46853 v 0.13091 q -0.15847,0.57189 -0.44097,0.57189 -0.10335,0 -0.46853,-0.36518 -0.0758,-0.1378 -0.0758,-0.23427 0,-0.38585 0.38585,-0.57188 z m 3.3693,0.46853 q 0.4892,0 0.54432,0.73036 v 0.0827 q -0.31695,0.46854 -0.44097,0.46854 -0.20671,0 -0.65457,-0.57878 0,-0.62012 0.52366,-0.7028 z"
         id="path23515"
         style="fill:#000000" />
      <path
         d="m 122.92596,107.86061 q 0.57188,0.23427 0.88194,0.74414 v 0.0551 q -0.22049,0.48921 -0.60634,1.65365 -0.2756,0.53743 -0.2756,1.04731 l 0.0276,0.0551 q -0.0551,0.1378 -0.0551,0.6339 v 0.38585 q 0.1378,0.35829 0.16536,0.35829 h 0.0551 q 0.59945,0 1.24024,-0.77171 0.44097,-0.3445 0.44097,-0.55121 0.57188,-0.70969 0.82682,-1.15755 0.30317,-0.3514 0.38585,-0.79926 0.19292,-0.19982 0.52365,-1.46072 0,-0.19293 0.16537,-0.19293 0.2825,0 0.79926,0.52366 0.0827,0 0.27561,0.41341 -0.16537,0.81304 -0.30317,1.12999 -0.0896,0.0965 -0.30317,0.93706 -0.0827,0.0896 -0.19292,0.66146 -0.0689,0 -0.16537,0.74414 -0.30317,0.40652 -0.52365,1.07487 l -0.55122,1.26779 q 0,0.0827 -0.22048,0.27561 0,0.45475 -0.57878,1.4056 0,0.0551 -0.52365,0.60634 0,0.26871 -0.55122,0.93706 -0.0482,0.0896 -0.33073,0.46853 -0.15847,0.24805 -0.33073,0.33073 0,0.11025 -1.01974,1.15755 -0.565,0.565 -0.90951,0.60634 -0.36518,0.27561 -1.07487,0.38585 h -0.0276 q -0.0276,0 -0.0276,-0.0276 -0.13091,0.0827 -0.71658,0.11024 -0.69591,0 -1.35047,-0.44097 -0.72347,-0.39963 -0.93707,-1.04731 -0.11024,-0.33073 -0.11024,-0.96462 v -0.0276 q 0,-0.44787 0.1378,-0.74414 0,-0.20671 0.22049,-0.74414 0,-0.18604 0.38585,-0.60634 0.0276,0.0413 0.0276,0.16536 h 0.0276 v -0.0827 h 0.0551 l 0.0276,0.16537 q -0.0276,0 -0.0276,0.0276 0.0482,0.0276 0.11024,0.0276 0,0.1378 -0.16536,0.33073 0.0276,0 0.0276,0.0276 0.11024,-0.0551 0.16536,-0.0551 v 0.11024 q 0,0.14469 0.0276,0.46853 l -0.0551,0.0276 0.0276,0.13781 -0.0827,0.66145 q 0.062,0 0.11025,1.12999 0.0345,0 0.11024,0.24805 l 0.19292,0.35829 q 0,0.13091 0.35829,0.16537 l 0.0551,-0.0276 h 0.0276 q 1.77077,0 3.83094,-2.61827 0.4203,-0.41341 0.74414,-1.07487 0.88883,-1.35047 1.65364,-3.2246 v -0.0276 h -0.0276 q -0.50987,0.3514 -0.82682,0.44097 -0.0276,0 -0.0276,-0.0276 l -0.1378,0.0276 q -0.66146,0 -1.84657,-0.88194 -0.41342,-0.40653 -0.52366,-1.04731 l 0.0551,-0.88195 -0.0276,-0.0551 q 0,-0.36518 0.38585,-1.26779 0,-0.31695 0.4961,-1.12999 0.0896,-0.55122 0.35829,-0.55122 z m -1.46072,8.76432 q 0.57188,0 0.79926,0.60633 v 0.30317 q -0.0482,0.41341 -0.27561,0.41341 h -0.0276 q -0.79926,-0.24804 -0.79926,-0.63389 0,-0.1447 -0.0276,-0.24805 0,-0.2825 0.33073,-0.44097 z m -2.09462,1.51584 q 0.27561,0.0482 0.27561,0.0827 l 0.0551,-0.0276 q 0.26872,0.11713 0.44097,0.38585 v 0.0551 q 0,0.53055 -0.27561,0.74414 h -0.0827 q -0.71658,-0.15847 -0.71658,-0.52365 0,-0.0689 -0.0276,-0.22049 0,-0.21359 0.33073,-0.49609 z"
         id="path23517"
         style="fill:#000000" />
      <path
         d="m 133.41282,102.43804 h 0.0276 q 0.9853,0 1.71566,0.7717 0.95084,1.16444 0.95084,2.37022 h -0.0482 v 0.12402 l 0.0482,-0.0276 0.0207,0.0551 q 0,0.0482 -0.0482,0.0482 0,-0.0276 -0.0207,-0.0276 v 0.0758 q 0.0689,0 0.0689,0.0482 v 0.0276 q -0.0689,0 -0.0689,0.0276 l -0.0758,0.89572 0.0482,0.34451 q -0.10335,0.28939 -0.17225,1.1989 l 0.0207,0.10335 q -0.0207,0.55121 -0.0482,0.66835 l 0.0276,0.0482 -0.10336,0.92328 0.10336,1.04731 -0.0276,0.0551 0.0276,0.0482 -0.0276,0.0482 q 0.0482,0.24804 0.0482,0.44786 v 0.12402 l 0.0276,0.12402 q 0.39963,0 0.39963,0.10336 v 0.0482 q -0.0758,0.062 -0.0758,0.15158 -0.10336,0 -0.10336,0.0482 0.0482,0.0276 0.0758,0.0276 v 0.0482 h -0.14469 q -0.0551,0.007 -0.10335,0.12402 0.17225,1.02664 0.59944,2.46669 0.12403,0.19981 0.32384,0.89572 0.0413,0.0482 0.24805,0.75103 0.2136,0.33762 0.39963,1.01975 v 0.0482 q -0.0207,0 -0.15158,0.0276 -0.61323,0 -1.46761,-1.97059 -0.48232,-0.73725 -0.97152,-2.81809 h -0.19981 q -0.17915,0 -0.95085,0.15158 v -0.0276 q -0.19982,0.0758 -0.7717,0.13092 -0.12402,0.17225 -0.24805,0.24804 0,0.1447 -0.3514,0.42031 -0.0344,0.10335 -0.0758,0.10335 l -0.0482,-0.0276 q 0,0.24804 -0.29628,0.24804 -0.0207,0 -0.19981,-0.0207 0,0.0207 -0.0276,0.0207 0,-0.0345 -0.0758,-0.0758 0,0.0896 -0.12402,0.12403 l -0.0207,-0.0482 v -0.0207 q 0.11024,-0.61322 0.24805,-0.72347 0,-0.12402 0.15158,-0.30316 v -0.0482 q -0.0276,0 -0.0758,-0.0276 -0.0276,0 -0.0276,0.0276 -1.03353,-0.13091 -1.49517,-0.4203 -0.64768,-0.77859 -0.64768,-1.27468 l 0.12402,-0.0965 q 1.08176,0.54432 1.5434,0.54432 0.35829,0.0758 1.10243,0.15158 0.11714,0 0.26872,-0.42719 0.88195,-1.70187 1.32292,-3.41064 0.42719,-1.56407 0.49609,-2.5976 0.0551,-0.19292 0.0551,-0.59255 0,-0.37896 -0.3514,-1.1989 l -0.44786,-0.69591 q -0.57189,-0.41341 -0.57189,-0.59944 0.0896,-0.0758 0.17226,-0.0758 z m -0.4203,5.00916 q 0.43408,0 0.69591,0.47542 0.0207,0.13092 0.0207,0.24805 -0.15159,0.69591 -0.52366,0.69591 h -0.0689 q -0.57877,-0.33073 -0.57877,-0.62012 v -0.0482 q 0,-0.24805 0.25493,-0.50298 -0.0551,0 -0.0551,-0.0689 0.0689,-0.17915 0.25494,-0.17915 z m -1.19889,2.44602 h 0.17225 q 0.45475,0 0.52365,0.54432 v 0.0758 q -0.13091,0.57189 -0.3445,0.57189 -0.72347,-0.14469 -0.72347,-0.57189 v -0.17225 q 0.14469,-0.44786 0.37207,-0.44786 z m 2.81808,0.94395 q -0.31006,0.77859 -0.59944,1.1231 0,0.0482 0.2756,0.0758 l 0.12403,-0.0276 h 0.34451 q 0,-0.0482 0.0276,-0.0482 -0.0758,-0.34451 -0.0965,-1.09554 l -0.0551,-0.0276 z"
         id="path23519"
         style="fill:#000000" />
      <path
         d="m 139.17301,107.30251 q 0.51677,0.17225 0.51677,0.44097 v 0.15847 q 0,0.22738 -0.41341,0.54433 h -0.0276 q -0.59945,-0.16537 -0.59945,-0.59945 v -0.0276 q 0,-0.16536 0.31695,-0.4892 0.1378,-0.0276 0.2067,-0.0276 z m 2.57004,1.08865 h 0.10336 q 0.2756,0 0.59944,0.44097 v 0.0276 q -0.22048,0.24116 -0.77859,0.46853 l -0.49609,0.39274 q -0.4892,0.51677 -0.67524,0.51677 -0.6339,0.68212 -0.77859,1.08865 -0.6339,0.70968 -0.77859,1.27468 -0.15848,0.59256 -0.15848,1.4056 l 0.0276,0.17914 -0.0482,0.0276 h -0.15847 q -0.59945,-0.062 -1.27468,-0.62011 -0.0482,-0.17226 -0.0482,-0.2136 l 0.12403,-0.51676 q 0,-0.0276 -0.0207,-0.0758 0.0207,-0.79927 0.10335,-1.37804 v -0.39274 q 0,-0.9164 -0.36518,-2.33578 v -0.0276 q 0.062,-0.0482 0.10335,-0.0482 0.26183,0 0.90951,0.33762 0.3514,0.34451 0.46853,0.85438 0.0138,0 0.0758,0.46854 h 0.0551 q 0.23427,-0.19293 0.44097,-0.54433 0.52366,-0.50298 0.80616,-0.65457 1.10243,-0.67523 1.76388,-0.67523 z"
         id="path23521"
         style="fill:#000000" />
      <path
         d="m 144.71272,105.29746 q 0.42031,0.1447 0.86128,0.96463 0.2067,0.39274 0.2067,0.53743 v 0.30317 q -0.14469,0.53744 -0.28249,0.53744 -0.39963,0 -1.09554,-0.84061 -0.27561,-0.42719 -0.27561,-0.64078 v -0.0207 q 0,-0.13781 0.22738,-0.66146 0.17914,-0.17915 0.35828,-0.17915 z m 2.5976,2.41846 h 0.0482 q 0.34451,0.33073 0.61322,0.91639 0.0207,0.13092 0.0207,0.25494 0,0.20671 -0.70969,0.50987 -0.28249,0.0689 -0.28249,0.15159 0.53743,0.66835 0.53743,0.94395 0.0482,0.42719 0.0482,0.55811 h -0.0207 q 0.0482,0.10335 0.0482,0.15158 -0.0482,0.007 -0.0482,0.0551 v 0.17915 q 0,1.03353 0.19982,1.757 0,0.43408 0.68902,1.6812 v 0.0207 q -0.0276,0 -0.0276,0.0276 -0.6959,-0.2067 -0.96462,-0.66146 -0.7717,-1.01974 -0.89573,-2.03949 -0.0482,-0.33073 -0.12402,-0.33073 -0.11024,0.0896 -0.30317,0.43408 -0.23426,0.19293 -0.41341,0.48232 -0.37896,0.46164 -0.5581,0.46164 -0.18604,0.17225 -0.45476,0.33073 0,0.0965 -0.56499,0.30317 -0.1378,0.0276 -0.22738,0.0276 -1.32291,-0.46854 -1.75699,-1.35048 -0.20671,-0.33073 -0.25494,-0.66146 l 0.0276,-0.13091 v -0.22738 l -0.0276,-0.15158 q 0.14469,-0.86128 0.53743,-1.24713 0.11025,-0.0413 0.30317,-0.43408 0.0276,0 0.46164,-0.43408 0.3514,-0.35829 0.6339,-0.37896 0.50298,-0.19981 2.74919,-0.81993 0.60633,-0.18604 0.71657,-0.37896 z m -4.25813,4.9127 v 0.0276 q 0,0.0344 0.0758,0.0758 h 0.10335 q 0.17915,0 0.73725,-0.43408 0.62012,-0.45475 1.12311,-1.14377 0,-0.0896 0.35828,-0.40652 0.19293,-0.22049 0.45476,-0.86816 0.0551,0 0.0551,-0.17915 -0.0276,0 -0.0276,-0.0207 -1.72944,0.4892 -1.88102,0.88884 -0.16537,0 -0.74414,0.78548 -0.0482,0.46853 -0.22738,0.92328 -0.0276,0.15848 -0.0276,0.3514 z"
         id="path23523"
         style="fill:#000000" />
      <path
         d="m 148.46787,101.31494 q 0.2136,0 0.93707,0.44097 1.04731,0.74414 1.04731,1.37804 0.1378,0.28249 0.30317,1.29535 0.0758,0 0.16536,0.82682 -0.0827,0.94396 -0.0827,0.99219 0.0551,0.19292 0.0551,0.30317 0,0.0276 -0.0276,0.0276 l 0.0276,0.1378 v 0.19293 q 0,0.0689 -0.11024,0.30317 l 0.0276,0.1378 q 0,0.0276 -0.0276,0.0276 l 0.0276,0.11024 -0.0276,0.24805 q 0,0.0207 0.0276,0.16536 l -0.0276,0.13781 q 0.0276,0.0551 0.0276,0.0827 v 0.0827 q 0.0276,0 0.0276,0.0276 0.76481,-0.57877 1.46072,-0.57877 1.02663,0 2.06705,1.24023 0.41341,0.66146 0.41341,1.51584 v 0.0827 h -0.0276 l 0.0276,0.0551 -0.22048,1.13 q -0.19982,0.57877 -0.4961,0.85438 -0.0827,0.24805 -0.49609,0.57877 -0.062,0 -1.26779,0.74414 -0.81305,0.33762 -1.24024,0.35829 h -0.0827 q -0.15158,0 -0.96462,-0.52365 v 0.0276 l 0.0276,0.24805 -0.0827,0.0551 h -0.0551 q -0.97151,-0.26183 -1.35047,-0.7717 0.0551,-0.0344 0.22048,-1.32292 0.0207,-0.007 0.11024,-0.33073 0,-0.0276 -0.0276,-0.0276 0.13781,-0.49609 0.27561,-1.62608 0,-0.0276 -0.0276,-0.0276 0.19293,-1.29536 0.33073,-2.59071 0,-0.0276 -0.0276,-0.0276 0,-0.062 0.11024,-0.90951 0,-0.0551 -0.0276,-0.0551 l 0.0276,-0.33073 v -0.44097 l 0.0276,-0.16536 -0.0276,-0.0551 q 0,-0.0551 0.0276,-0.0551 0,-1.02663 -0.41341,-2.83875 -0.13091,-0.41341 -0.68902,-0.90951 -0.0551,-0.007 -0.0827,-0.16536 z m 3.74826,4.02386 q 0.41342,0 0.93707,0.68902 0,0.13781 0.16536,0.30317 -0.14469,0.6339 -0.30316,0.6339 -0.10336,0.0276 -0.24805,0.0276 -0.62701,-0.34451 -0.96463,-0.68902 -0.0827,-0.23427 -0.0827,-0.30317 0.13091,-0.60633 0.44097,-0.60633 0.007,-0.0551 0.0551,-0.0551 z m -1.98437,6.91775 v 0.16537 l -0.0827,0.1378 0.0276,0.0551 q -0.11024,0.26872 -0.16536,0.66146 0.0758,0.062 0.30316,0.11024 1.66743,-0.37207 2.61827,-1.37804 0.7717,-1.05419 0.7717,-2.25998 h 0.0276 l -0.0276,-0.0551 q 0,-0.0276 0.0276,-0.0276 -0.11025,-1.10243 -0.46854,-1.10243 -0.0276,0 -0.0276,0.0276 l -0.1378,-0.0276 h -0.0276 q -0.44097,0 -0.96463,0.41341 -0.59944,0.37207 -0.9095,0.99219 -0.13092,0.0827 -0.41341,0.6339 -0.41342,0.53054 -0.41342,0.79926 -0.1378,0.37207 -0.1378,0.85438 z"
         id="path23525"
         style="fill:#000000" />
      <path
         d="m 156.0333,104.70491 h 0.0689 q 0.26871,0 0.73036,0.58566 0.0896,0.2136 0.0896,0.25494 l -0.20671,0.53743 v 0.0276 q 0.0413,0.39963 0.42031,0.8406 0.0482,0.0758 0.0482,0.1378 l -0.0482,0.0276 h -0.0276 q -0.21359,0 -0.74414,-0.37896 -0.42719,-0.25493 -0.68212,-0.72347 l -0.0207,-0.1378 q 0,-0.46853 0.30316,-0.81993 0.0207,-0.13092 0.0207,-0.19293 l -0.0207,-0.0413 q 0.0276,-0.11713 0.0689,-0.11713 z m 0.0207,3.34863 h 0.11713 q 0.47542,0.11713 0.96463,0.63389 0.0482,0.33073 0.0482,0.48921 l -0.0276,0.0482 0.0482,0.2825 q -0.062,0.30317 -0.0965,0.72347 -0.1378,0.28938 -0.50987,1.5434 -0.37896,1.55718 -0.37896,1.68809 0,0.51677 0.14469,0.51677 0,0.0551 0.0689,0.1378 v 0.0482 q 0,0.0482 -0.0482,0.0482 h -0.0689 q -0.67523,-0.15847 -0.86816,-0.46853 -0.23427,-0.39274 -0.23427,-0.86816 v -0.37207 l 0.0207,-0.1447 -0.0207,-0.0413 q 0.0965,-0.82682 0.39963,-1.52273 0.42031,-1.22645 0.42031,-2.25309 v -0.2067 q 0,-0.0413 -0.0482,-0.1447 0.0345,-0.1378 0.0689,-0.1378 z"
         id="path23527"
         style="fill:#000000" />
      <path
         d="m 160.49124,104.40174 h 0.0827 q 0.23426,0.0276 0.57877,0.52365 0.44097,0.81994 0.44097,0.99219 v 0.11024 q -0.15847,0.22738 -0.35829,0.60634 h -0.0551 q -0.31006,0 -0.79926,-0.66146 -0.35829,-0.50987 -0.35829,-0.6339 v -0.16536 q 0,-0.62012 0.33073,-0.74414 0.0482,-0.0276 0.1378,-0.0276 z m 3.00413,1.79145 q 0.2067,0.17914 0.66145,1.21267 0.0276,0.24116 0.0276,0.30317 -0.1378,0.3514 -0.24804,0.85438 -0.94396,0.79926 -1.48828,0.79926 l -0.6339,0.11025 -0.19293,-0.0276 h -0.99218 q -0.57189,0.062 -1.2678,1.12999 -0.30316,0.50298 -0.49609,1.24023 0,0.26872 -0.0827,0.52365 0,0.55122 0.24804,0.55122 0.25494,0.0827 0.57878,0.0827 0.73036,0 2.06706,-1.10243 l 0.35829,-0.19292 q 0.0896,0.0551 0.1378,0.0551 v 0.11024 q -0.0827,0.10335 -0.0827,0.24805 l 0.0551,0.0276 q 0,-0.0276 0.0276,-0.0276 0,0.062 0.11024,0.19292 0,0.11713 -0.35829,0.7717 0,0.24116 -0.99218,0.96463 -0.15159,0.0827 -0.99219,0.19292 -0.99908,-0.28938 -1.92925,-1.57096 -0.32384,-0.47542 -0.41341,-1.10243 v -0.33073 q 0,-0.66835 0.38585,-1.35047 0.37207,-1.1231 1.10243,-1.54341 0.2067,-0.30316 1.18511,-0.33072 0.59255,0.0827 1.12999,0.0827 1.07487,0 1.65364,-0.7717 0.27561,-0.59256 0.35829,-1.04731 z"
         id="path23529"
         style="fill:#000000" />
      <path
         d="m 169.93081,102.41048 q 0.43408,0 0.59944,0.52365 v 0.13091 q 0,0.48921 -0.47542,0.72347 h -0.12402 q -0.52366,-0.39963 -0.52366,-0.62011 0,-0.48921 0.46853,-0.75792 z m 3.17637,0 h 0.0276 q 0.34451,0.15847 0.59945,0.52365 0.54432,0.87505 0.54432,1.32981 0,0.26182 -0.0758,0.44097 0,0.0276 0.0207,0.0276 0,0.51676 -0.59944,1.19889 -0.0965,0 -0.12403,0.17915 -0.29628,0.29627 -0.70969,0.54432 h -0.0207 q -0.28939,0 -0.68213,-0.67524 -0.0207,0 -0.0207,-0.0758 v -0.0551 q 0,-0.0758 0.25494,-0.36518 0,-0.0896 0.49609,-0.64768 0.44787,-0.59945 0.44787,-0.96463 0.0207,0 0.0207,-0.0276 l -0.0482,-0.0276 q -0.37207,0.10336 -1.06797,0.52366 l -0.65457,0.54432 q -0.54433,0.36518 -0.9853,1.04731 -0.0827,0.0413 -0.59944,0.93707 -0.72347,1.0473 -0.9164,1.68809 -0.49609,0.90951 -0.96462,2.42535 -0.23427,1.11621 -0.26183,1.50895 0,0.49609 0.18603,0.49609 h 0.10336 q 0.71658,0 1.95681,-1.32981 0.12402,-0.12402 0.36518,-0.25493 0,-0.0758 0.59944,-0.39274 0,-0.0689 0.51677,-0.36518 0,-0.17915 0.96462,-0.4203 0.0345,-0.0207 0.18604,-0.0207 l 0.0482,0.0758 0.0551,-0.0276 h 0.0207 v 0.0551 q 0,0.0413 -0.10335,0.10335 l 0.0276,0.0482 v 0.0276 h -0.0482 v 0.0276 h 0.0482 q 0,-0.0276 0.0276,-0.0276 l 0.0276,0.0551 q -0.0965,0.007 -0.18603,0.23427 -0.13781,0 -0.20671,0.33762 -0.0345,0 -0.2067,0.20671 -0.36518,0.18603 -0.36518,0.33761 -0.31695,0.22738 -0.31695,0.34451 -0.0689,0.007 -0.23427,0.38585 -0.5581,0.79927 -1.11621,1.01975 l -0.55121,0.51677 q -0.20671,0.13091 -0.7028,0.28938 -0.66146,0 -0.9853,-0.44097 -0.8406,-0.81304 -0.94395,-1.43316 -0.11714,-0.17225 -0.17915,-0.91639 0.0344,-0.66835 0.49609,-2.1084 0.23427,-0.79237 0.41342,-1.11621 0.0482,0 0.15847,-0.39274 0.4203,-1.02664 1.30224,-2.32199 l 0.75792,-1.04042 q 0.0413,0 0.51677,-0.59945 0.0896,0 0.55121,-0.46853 0.55122,-0.4203 0.62701,-0.4203 0.48231,-0.14469 0.80615,-0.41341 0.34451,-0.13091 0.7028,-0.13091 z m -4.92648,1.90169 h 0.0276 q 0.49609,0 0.73036,0.7028 v 0.15847 q -0.15848,0.62701 -0.44097,0.62701 h -0.15848 q -0.55121,-0.4203 -0.55121,-0.68213 v -0.0758 q 0,-0.39963 0.39274,-0.73036 z"
         id="path23531"
         style="fill:#000000" />
      <path
         d="m 173.67217,102.91346 h 0.16537 q 0.81304,0.26872 1.45383,1.27468 0.37207,0.88195 0.37207,1.46072 0,0.13781 -0.0551,0.73725 0.0551,0.28939 0.0551,0.61323 l -0.10336,1.67431 h 0.0276 q 1.21957,-1.17133 1.93615,-1.17133 h 0.15847 q 0.46853,0 1.13688,0.68902 0.55811,0.6339 0.55811,0.93018 l 0.0827,0.31694 -0.0276,0.13092 v 0.0827 q 0,0.65457 -0.37207,1.72255 -0.0689,0 -0.15848,0.48231 -0.11713,0.1378 -0.26871,0.81993 -0.0413,0.0551 -0.23427,0.53055 -0.4203,0.58566 -0.53054,0.58566 h -0.11025 q -0.38585,-0.25493 -0.57877,-0.58566 0,-0.33073 0.95084,-3.10748 l 0.18604,-0.81993 q 0,-0.0276 -0.0276,-0.0276 l 0.0276,-0.18604 v -0.47542 h -0.0758 q -0.32384,0 -1.48828,0.81993 -0.31695,0.29628 -0.95774,1.08865 l -0.47542,0.74414 -0.2136,0.53055 q -0.15158,0.22737 -0.34451,0.44786 -0.0965,0.18604 -0.28939,1.08865 -0.0551,0 -0.0551,0.15847 l 0.0551,0.18604 -0.0827,0.0551 q -0.50987,-0.0689 -1.192,-0.6339 -0.13091,-0.16536 -0.15847,-0.26871 l 0.50298,-1.53652 q 0,-0.0896 0.0827,-0.31694 l -0.0276,-0.11025 q 0.28939,-0.71658 0.47542,-1.9637 0.0551,-0.565 0.15848,-0.92328 v -0.2136 q 0,-0.0276 0.0276,-0.0276 l -0.0276,-0.0551 q 0.0689,-0.48232 0.1378,-1.16444 l -0.0276,-0.0551 0.0758,-0.47542 v -0.61323 q 0,-0.68901 -0.31695,-1.63986 -0.11024,-0.25494 -0.44786,-0.5581 l -0.0276,-0.18604 q 0.007,-0.0551 0.0482,-0.0551 z m 3.1626,2.68028 q 0.34451,0.29628 0.34451,0.47542 v 0.2136 q -0.2825,0.58567 -0.61323,0.58567 -0.50298,-0.24805 -0.50298,-0.53055 0.17225,-0.74414 0.58566,-0.74414 z m 2.17041,0.15848 h 0.0827 q 0.46164,0 0.68902,0.68901 v 0.15848 q 0,0.11024 -0.15848,0.29628 -0.22048,0.34451 -0.42719,0.34451 h -0.0276 q -0.44097,-0.1447 -0.66146,-0.50988 l -0.0551,-0.17914 q 0,-0.44786 0.32384,-0.66835 l 0.0482,0.0276 q 0.0207,0 0.18604,-0.15847 z"
         id="path23533"
         style="fill:#000000" />
      <path
         d="m 184.53111,106.63416 h 0.19292 q 0.4203,0 0.71658,0.82682 v 0.0827 q 0,0.15159 -0.19293,0.27561 h -0.0827 q -0.31006,0 -0.79926,-0.52365 -0.0551,-0.10336 -0.0551,-0.22049 v -0.0276 q 0,-0.26183 0.22049,-0.41341 z m -2.949,0.16536 h 0.0827 q 0.32384,0 0.60633,0.60634 0.0276,0.0413 0.0276,0.16536 -0.0758,0.27561 -0.16537,0.27561 h -0.0551 q -0.7717,-0.34451 -0.7717,-0.60633 0,-0.23427 0.27561,-0.44098 z m 2.59071,1.51584 q 0.49609,0 1.07486,0.74414 v 0.0827 q -0.0551,0.11024 -0.41341,1.65364 -0.33073,1.01286 -0.44097,1.62609 v 0.11024 q 0.0896,0.99219 0.16537,0.99219 h 0.0276 q 0.30317,-0.0551 0.33073,-0.0551 l 0.11024,0.0276 0.0551,-0.0276 q 0.11024,0.0413 0.11024,0.0827 v 0.1378 q 0,0.13091 -0.0827,0.19292 l 0.0276,0.0551 q 0,0.0345 -0.22048,0.22048 h -0.19293 q -0.57877,-0.14469 -1.01975,-0.57877 -0.22048,-0.26872 -0.22048,-0.35829 h -0.0276 l -0.41341,0.57877 q -0.33073,0.41341 -0.90951,0.41341 -1.14377,0 -2.01193,-1.01974 -0.27561,-0.54433 -0.27561,-1.01975 l 0.0276,-0.0551 -0.0276,-0.0551 q 0.0896,-1.06109 0.38585,-1.98438 0.51676,-1.53651 0.74414,-1.65364 l 0.0551,-0.0276 q 0.46853,0 0.99219,0.60633 v 0.0551 q -0.2136,0.58567 -0.33073,1.15756 -0.46853,1.20578 -0.46853,2.50802 v 0.0827 q 0,0.0276 -0.0276,0.0276 0.15158,0.57188 0.19292,0.57877 0.42719,0 0.99219,-0.85438 0.60633,-1.12999 0.60633,-1.24023 0.27561,-0.47543 0.57878,-1.37804 l 0.46853,-1.32292 q 0,-0.24115 0.13781,-0.30317 z"
         id="path23535"
         style="fill:#000000" />
      <path
         d="m 187.82461,107.30251 q 0.51677,0.17225 0.51677,0.44097 v 0.15847 q 0,0.22738 -0.41341,0.54433 h -0.0276 q -0.59945,-0.16537 -0.59945,-0.59945 v -0.0276 q 0,-0.16536 0.31695,-0.4892 0.1378,-0.0276 0.2067,-0.0276 z m 2.57004,1.08865 h 0.10336 q 0.2756,0 0.59944,0.44097 v 0.0276 q -0.22048,0.24116 -0.77859,0.46853 l -0.49609,0.39274 q -0.4892,0.51677 -0.67524,0.51677 -0.6339,0.68212 -0.77859,1.08865 -0.6339,0.70968 -0.77859,1.27468 -0.15848,0.59256 -0.15848,1.4056 l 0.0276,0.17914 -0.0482,0.0276 h -0.15847 q -0.59945,-0.062 -1.27469,-0.62011 -0.0482,-0.17226 -0.0482,-0.2136 l 0.12403,-0.51676 q 0,-0.0276 -0.0207,-0.0758 0.0207,-0.79927 0.10335,-1.37804 v -0.39274 q 0,-0.9164 -0.36518,-2.33578 v -0.0276 q 0.062,-0.0482 0.10335,-0.0482 0.26183,0 0.90951,0.33762 0.3514,0.34451 0.46853,0.85438 0.0138,0 0.0758,0.46854 h 0.0551 q 0.23427,-0.19293 0.44097,-0.54433 0.52366,-0.50298 0.80616,-0.65457 1.10243,-0.67523 1.76388,-0.67523 z"
         id="path23537"
         style="fill:#000000" />
      <path
         d="m 193.43322,104.40174 h 0.0827 q 0.23427,0.0276 0.57878,0.52365 0.44097,0.81994 0.44097,0.99219 v 0.11024 q -0.15847,0.22738 -0.35829,0.60634 h -0.0551 q -0.31006,0 -0.79926,-0.66146 -0.35829,-0.50987 -0.35829,-0.6339 v -0.16536 q 0,-0.62012 0.33073,-0.74414 0.0482,-0.0276 0.1378,-0.0276 z m 3.00412,1.79145 q 0.20671,0.17914 0.66146,1.21267 0.0276,0.24116 0.0276,0.30317 -0.1378,0.3514 -0.24804,0.85438 -0.94396,0.79926 -1.48828,0.79926 l -0.6339,0.11025 -0.19293,-0.0276 h -0.99218 q -0.57189,0.062 -1.2678,1.12999 -0.30317,0.50298 -0.49609,1.24023 0,0.26872 -0.0827,0.52365 0,0.55122 0.24804,0.55122 0.25494,0.0827 0.57878,0.0827 0.73036,0 2.06705,-1.10243 l 0.35829,-0.19292 q 0.0896,0.0551 0.13781,0.0551 v 0.11024 q -0.0827,0.10335 -0.0827,0.24805 l 0.0551,0.0276 q 0,-0.0276 0.0276,-0.0276 0,0.062 0.11024,0.19292 0,0.11713 -0.35829,0.7717 0,0.24116 -0.99219,0.96463 -0.15158,0.0827 -0.99218,0.19292 -0.99908,-0.28938 -1.92925,-1.57096 -0.32384,-0.47542 -0.41342,-1.10243 v -0.33073 q 0,-0.66835 0.38586,-1.35047 0.37207,-1.1231 1.10242,-1.54341 0.20671,-0.30316 1.18512,-0.33072 0.59255,0.0827 1.12999,0.0827 1.07487,0 1.65364,-0.7717 0.27561,-0.59256 0.35829,-1.04731 z"
         id="path23539"
         style="fill:#000000" />
      <path
         d="m 196.53381,102.91346 h 0.16536 q 0.81304,0.26872 1.45383,1.27468 0.37207,0.88195 0.37207,1.46072 0,0.13781 -0.0551,0.73725 0.0551,0.28939 0.0551,0.61323 l -0.10335,1.67431 h 0.0276 q 1.21956,-1.17133 1.93614,-1.17133 h 0.15847 q 0.46854,0 1.13689,0.68902 0.5581,0.6339 0.5581,0.93018 l 0.0827,0.31694 -0.0276,0.13092 v 0.0827 q 0,0.65457 -0.37207,1.72255 -0.0689,0 -0.15847,0.48231 -0.11714,0.1378 -0.26872,0.81993 -0.0413,0.0551 -0.23427,0.53055 -0.4203,0.58566 -0.53054,0.58566 h -0.11024 q -0.38585,-0.25493 -0.57878,-0.58566 0,-0.33073 0.95085,-3.10748 l 0.18603,-0.81993 q 0,-0.0276 -0.0276,-0.0276 l 0.0276,-0.18604 v -0.47542 h -0.0758 q -0.32384,0 -1.48828,0.81993 -0.31695,0.29628 -0.95774,1.08865 l -0.47542,0.74414 -0.21359,0.53055 q -0.15159,0.22737 -0.34451,0.44786 -0.0965,0.18604 -0.28939,1.08865 -0.0551,0 -0.0551,0.15847 l 0.0551,0.18604 -0.0827,0.0551 q -0.50988,-0.0689 -1.19201,-0.6339 -0.13091,-0.16536 -0.15847,-0.26871 l 0.50298,-1.53652 q 0,-0.0896 0.0827,-0.31694 l -0.0276,-0.11025 q 0.28939,-0.71658 0.47543,-1.9637 0.0551,-0.565 0.15847,-0.92328 v -0.2136 q 0,-0.0276 0.0276,-0.0276 l -0.0276,-0.0551 q 0.0689,-0.48232 0.13781,-1.16444 l -0.0276,-0.0551 0.0758,-0.47542 v -0.61323 q 0,-0.68901 -0.31695,-1.63986 -0.11025,-0.25494 -0.44786,-0.5581 l -0.0276,-0.18604 q 0.007,-0.0551 0.0482,-0.0551 z m 3.16259,2.68028 q 0.34451,0.29628 0.34451,0.47542 v 0.2136 q -0.2825,0.58567 -0.61323,0.58567 -0.50298,-0.24805 -0.50298,-0.53055 0.17226,-0.74414 0.58567,-0.74414 z m 2.17041,0.15848 h 0.0827 q 0.46164,0 0.68902,0.68901 v 0.15848 q 0,0.11024 -0.15847,0.29628 -0.22049,0.34451 -0.42719,0.34451 h -0.0276 q -0.44097,-0.1447 -0.66145,-0.50988 l -0.0551,-0.17914 q 0,-0.44786 0.32383,-0.66835 l 0.0482,0.0276 q 0.0207,0 0.18603,-0.15847 z"
         id="path23541"
         style="fill:#000000" />
    </g>
  </g>
</svg>
