<?xml version="1.0" encoding="UTF-8"?>
<svg id="Layer_2" data-name="Layer 2" xmlns="http://www.w3.org/2000/svg" viewBox="0 0 156.63 115.53">
  <defs>
    <style>
      .cls-1 {
        fill: #c69032;
      }

      .cls-2 {
        fill: gray;
      }

      .cls-3 {
        fill: #ccc;
      }

      .cls-3, .cls-4 {
        fill-rule: evenodd;
      }

      .cls-4 {
        fill: #e6e6e6;
      }
    </style>
  </defs>
  <g id="Layer_1-2" data-name="Layer 1">
    <g>
      <path class="cls-1" d="m75.51,0h5.61v21.57h29.26v5.61h-29.26v56.36c-.98,3.92-2.26,5.89-2.93,10.27-.26-3.63-1.64-6.1-2.69-10.28V27.19h-29.26v-5.61h29.26V0h0Z"/>
      <g>
        <path class="cls-2" d="m154.83,96.89c-1.96-.6-48.27-14.51-68.65,6.54-.22.23-.4.5-.52.8-2.04,4.96-3.12,6.21-7.34,6.21s-5.3-1.25-7.34-6.21c-.12-.3-.3-.57-.52-.8-20.39-21.05-66.69-7.14-68.65-6.54-1.34.41-2.09,1.83-1.68,3.18.41,1.34,1.83,2.09,3.17,1.68.45-.14,44.75-13.44,63.18,4.88,2.13,5.07,4.49,8.89,11.85,8.89s9.72-3.82,11.85-8.89c18.43-18.32,62.73-5.02,63.18-4.88,1.34.41,2.76-.34,3.17-1.68.41-1.34-.34-2.76-1.68-3.18"/>
        <path class="cls-3" d="m76.22,103.68c-7.98-11.85-33.99-24.7-74.34-11.85,6.01-8.11,4.05-6.14,4.05-6.14,0,0,53.24-15.65,70.29,17.99"/>
        <path class="cls-4" d="m78.31,97.05c-3.53-9.17-26.19-24.62-61.03-17.03,4.19-5.5,4.72-6.02,4.72-6.02,0,0,44.66-6.42,56.31,23.05"/>
        <path class="cls-3" d="m80.41,103.68c7.98-11.85,33.99-24.7,74.34-11.85-6.01-8.11-4.05-6.14-4.05-6.14,0,0-53.24-15.65-70.29,17.99"/>
        <path class="cls-4" d="m78.31,97.05c3.53-9.17,26.19-24.62,61.03-17.03-4.19-5.5-4.71-6.02-4.71-6.02,0,0-44.66-6.42-56.31,23.05"/>
      </g>
    </g>
  </g>
</svg>