<?xml version="1.0" encoding="UTF-8"?>
<svg id="Layer_2" data-name="Layer 2" xmlns="http://www.w3.org/2000/svg" viewBox="0 0 393.38 62.42">
  <defs>
    <style>
      .cls-1 {
        fill: #c69032;
      }

      .cls-2 {
        fill: gray;
      }

      .cls-3 {
        fill: #ccc;
      }

      .cls-3, .cls-4 {
        fill-rule: evenodd;
      }

      .cls-4 {
        fill: #e6e6e6;
      }

      .cls-5 {
        fill: #FFF
      }
    </style>
  </defs>
  <g id="Layer_1-2" data-name="Layer 1">
    <g>
      <g>
        <path class="cls-1" d="m40.47,0h3.01v11.56h15.68v3.01h-15.68v30.21c-.52,2.1-1.21,3.16-1.57,5.51-.14-1.94-.88-3.27-1.44-5.51V14.57h-15.68v-3.01h15.68V0h0Z"/>
        <g>
          <path class="cls-2" d="m82.98,51.93c-1.05-.32-25.87-7.78-36.8,3.5-.12.12-.22.27-.28.43-1.1,2.66-1.67,3.33-3.93,3.33s-2.84-.67-3.93-3.33c-.07-.16-.16-.3-.28-.43-10.93-11.28-35.74-3.83-36.8-3.5-.72.22-1.12.98-.9,1.7.22.72.98,1.12,1.7.9.24-.07,23.99-7.2,33.86,2.62,1.14,2.72,2.4,4.77,6.35,4.77s5.21-2.05,6.35-4.77c9.88-9.82,33.62-2.69,33.86-2.62.72.22,1.48-.18,1.7-.9.22-.72-.18-1.48-.9-1.7"/>
          <path class="cls-3" d="m40.85,55.57c-4.28-6.35-18.22-13.24-39.85-6.35,3.22-4.34,2.17-3.29,2.17-3.29,0,0,28.54-8.39,37.68,9.64"/>
          <path class="cls-4" d="m41.97,52.02c-1.89-4.91-14.04-13.2-32.71-9.13,2.25-2.95,2.53-3.23,2.53-3.23,0,0,23.94-3.44,30.18,12.36"/>
          <path class="cls-3" d="m43.1,55.57c4.28-6.35,18.22-13.24,39.85-6.35-3.22-4.34-2.17-3.29-2.17-3.29,0,0-28.54-8.39-37.68,9.64"/>
          <path class="cls-4" d="m41.97,52.02c1.89-4.91,14.04-13.2,32.71-9.13-2.25-2.95-2.53-3.23-2.53-3.23,0,0-23.94-3.44-30.18,12.36"/>
        </g>
      </g>
      <g>
        <path class="cls-5" d="m100.04,17.21c0,.43-.09.82-.26,1.16s-.41.63-.71.86c-.29.24-.64.42-1.04.54-.4.12-.82.19-1.27.19h-5.08v-10.65h5.49c.37,0,.7.08,1,.24.3.16.55.37.76.62s.37.55.49.87c.12.33.17.65.17.98,0,.52-.13,1.01-.4,1.46-.27.46-.64.79-1.13,1.01.61.18,1.09.51,1.45.98.36.48.53,1.05.53,1.73Zm-6.69-6.45v3.13h3.09c.21,0,.4-.04.58-.12.17-.08.33-.19.46-.32.13-.14.24-.3.31-.49.08-.19.11-.4.11-.63,0-.46-.13-.84-.39-1.13s-.59-.44-.99-.44h-3.18Zm4.96,6.13c0-.22-.04-.43-.11-.63s-.17-.38-.3-.52c-.12-.15-.28-.27-.46-.36s-.38-.13-.58-.13h-3.51v3.25h3.41c.22,0,.42-.04.62-.13.19-.08.35-.2.49-.35.14-.14.25-.31.33-.51s.12-.4.12-.62Z"/>
        <path class="cls-5" d="m105.29,19.96v-10.65h1.68v10.65h-1.68Z"/>
        <path class="cls-5" d="m121.23,17.21c0,.43-.09.82-.26,1.16s-.41.63-.71.86c-.29.24-.64.42-1.04.54-.4.12-.82.19-1.27.19h-5.08v-10.65h5.49c.37,0,.7.08,1,.24.3.16.55.37.76.62s.37.55.49.87c.12.33.17.65.17.98,0,.52-.13,1.01-.4,1.46-.27.46-.64.79-1.13,1.01.61.18,1.09.51,1.45.98.36.48.53,1.05.53,1.73Zm-6.69-6.45v3.13h3.09c.21,0,.4-.04.58-.12.17-.08.33-.19.46-.32.13-.14.24-.3.31-.49.08-.19.11-.4.11-.63,0-.46-.13-.84-.39-1.13s-.59-.44-.99-.44h-3.18Zm4.96,6.13c0-.22-.04-.43-.11-.63s-.17-.38-.3-.52c-.12-.15-.28-.27-.46-.36s-.38-.13-.58-.13h-3.51v3.25h3.41c.22,0,.42-.04.62-.13.19-.08.35-.2.49-.35.14-.14.25-.31.33-.51s.12-.4.12-.62Z"/>
        <path class="cls-5" d="m126.48,19.96v-10.65h1.68v9.17h5.71v1.48h-7.39Z"/>
        <path class="cls-5" d="m146.04,18.47v1.48h-7.3v-10.65h7.17v1.48h-5.49v3.03h4.75v1.39h-4.75v3.26h5.62Z"/>
        <path class="cls-5" d="m157.8,14.56c0-.64.11-1.28.34-1.91.23-.63.57-1.21,1.01-1.71.44-.5.99-.91,1.63-1.22.64-.31,1.37-.46,2.17-.46.97,0,1.8.22,2.49.65.69.43,1.21.99,1.56,1.68l-1.32.88c-.15-.32-.33-.59-.54-.81-.21-.22-.44-.4-.69-.52s-.51-.22-.78-.28c-.27-.06-.53-.08-.78-.08-.56,0-1.05.11-1.47.34s-.77.52-1.06.89-.5.79-.65,1.24c-.14.46-.22.92-.22,1.38,0,.52.08,1.02.25,1.48.17.47.41.88.71,1.25.31.36.67.65,1.09.86.42.22.88.32,1.38.32.26,0,.53-.03.8-.1.27-.06.54-.17.79-.31s.49-.33.71-.55c.21-.22.39-.49.53-.8l1.4.8c-.17.4-.41.75-.72,1.06-.31.31-.66.56-1.05.77s-.8.37-1.24.48c-.44.11-.86.17-1.28.17-.75,0-1.44-.16-2.06-.48-.62-.32-1.15-.74-1.6-1.25-.45-.51-.8-1.1-1.05-1.75-.25-.65-.38-1.32-.38-2Z"/>
        <path class="cls-5" d="m180.98,9.31v10.65h-1.7v-4.69h-5.37v4.69h-1.68v-10.65h1.68v4.46h5.37v-4.46h1.7Z"/>
        <path class="cls-5" d="m191.31,18.52c.56,0,1.03-.11,1.4-.33.37-.22.67-.51.89-.86.22-.35.38-.76.48-1.22.09-.45.14-.92.14-1.4v-5.4h1.7v5.4c0,.73-.08,1.42-.25,2.06s-.44,1.21-.81,1.69c-.37.49-.85.87-1.43,1.15-.58.28-1.29.42-2.11.42s-1.57-.15-2.15-.44c-.58-.29-1.06-.69-1.42-1.19-.36-.49-.62-1.06-.78-1.7s-.24-1.31-.24-2v-5.4h1.68v5.4c0,.49.05.96.14,1.42.1.46.26.86.48,1.21.22.36.53.64.9.85.38.22.84.32,1.39.32Z"/>
        <path class="cls-5" d="m201.65,19.96v-10.65h4.63c.48,0,.92.1,1.33.3.41.2.75.46,1.04.79.29.33.52.7.68,1.11.17.42.25.84.25,1.27,0,.36-.05.71-.15,1.04-.1.33-.24.64-.42.92-.18.28-.4.52-.66.73-.26.21-.55.36-.86.46l2.5,4.05h-1.9l-2.31-3.71h-2.46v3.71h-1.68Zm1.68-5.19h2.94c.24,0,.46-.05.65-.16s.36-.25.5-.44c.14-.18.25-.4.33-.64.08-.24.12-.5.12-.77s-.05-.52-.14-.77c-.09-.24-.22-.45-.38-.63-.16-.18-.33-.32-.54-.43s-.42-.16-.64-.16h-2.85v3.98Z"/>
        <path class="cls-5" d="m214.38,14.56c0-.64.11-1.28.34-1.91.23-.63.57-1.21,1.01-1.71.44-.5.99-.91,1.63-1.22.64-.31,1.37-.46,2.17-.46.97,0,1.8.22,2.49.65.69.43,1.21.99,1.56,1.68l-1.32.88c-.15-.32-.33-.59-.54-.81-.21-.22-.44-.4-.69-.52s-.51-.22-.78-.28c-.27-.06-.53-.08-.78-.08-.56,0-1.05.11-1.47.34s-.77.52-1.06.89-.5.79-.65,1.24c-.14.46-.22.92-.22,1.38,0,.52.08,1.02.25,1.48.17.47.41.88.71,1.25.31.36.67.65,1.09.86.42.22.88.32,1.38.32.26,0,.53-.03.8-.1.27-.06.54-.17.79-.31s.49-.33.71-.55c.21-.22.39-.49.53-.8l1.4.8c-.17.4-.41.75-.72,1.06-.31.31-.66.56-1.05.77s-.8.37-1.24.48c-.44.11-.86.17-1.28.17-.75,0-1.44-.16-2.06-.48-.62-.32-1.15-.74-1.6-1.25-.45-.51-.8-1.1-1.05-1.75-.25-.65-.38-1.32-.38-2Z"/>
        <path class="cls-5" d="m237.56,9.31v10.65h-1.7v-4.69h-5.37v4.69h-1.68v-10.65h1.68v4.46h5.37v-4.46h1.7Z"/>
        <path class="cls-5" d="m255.08,20.03c-.76,0-1.45-.15-2.08-.46-.62-.31-1.16-.71-1.61-1.22-.45-.5-.8-1.08-1.04-1.73-.25-.65-.37-1.31-.37-2s.13-1.39.39-2.04c.26-.65.62-1.22,1.07-1.72s1-.9,1.62-1.19c.62-.29,1.31-.44,2.05-.44s1.45.16,2.08.47,1.16.73,1.61,1.24c.44.51.79,1.09,1.03,1.73s.37,1.3.37,1.97c0,.71-.13,1.39-.38,2.04-.25.65-.61,1.22-1.07,1.72-.46.5-1,.89-1.63,1.19-.62.3-1.3.44-2.03.44Zm-3.39-5.4c0,.5.08.99.24,1.46.16.47.39.89.68,1.25s.65.65,1.07.86c.42.22.89.32,1.41.32s1.02-.11,1.43-.34c.42-.23.77-.52,1.06-.89s.51-.79.66-1.25.22-.93.22-1.41c0-.51-.08-1-.24-1.46-.16-.46-.39-.88-.68-1.23s-.65-.64-1.07-.85c-.42-.21-.88-.32-1.39-.32-.54,0-1.02.11-1.44.34s-.78.52-1.07.88-.51.77-.67,1.24c-.16.47-.23.94-.23,1.42Z"/>
        <path class="cls-5" d="m265.43,19.96v-10.65h7.09v1.48h-5.42v3.18h4.53v1.4h-4.53v4.59h-1.68Z"/>
        <path class="cls-5" d="m283.8,14.56c0-.64.11-1.28.34-1.91.23-.63.57-1.21,1.01-1.71.44-.5.99-.91,1.63-1.22.64-.31,1.37-.46,2.17-.46.97,0,1.8.22,2.49.65.69.43,1.21.99,1.56,1.68l-1.32.88c-.15-.32-.33-.59-.54-.81-.21-.22-.44-.4-.69-.52s-.51-.22-.78-.28c-.27-.06-.53-.08-.78-.08-.56,0-1.05.11-1.47.34s-.77.52-1.06.89-.5.79-.65,1.24c-.14.46-.22.92-.22,1.38,0,.52.08,1.02.25,1.48.17.47.41.88.71,1.25.31.36.67.65,1.09.86.42.22.88.32,1.38.32.26,0,.53-.03.8-.1.27-.06.54-.17.79-.31s.49-.33.71-.55c.21-.22.39-.49.53-.8l1.4.8c-.17.4-.41.75-.72,1.06-.31.31-.66.56-1.05.77s-.8.37-1.24.48c-.44.11-.86.17-1.28.17-.75,0-1.44-.16-2.06-.48-.62-.32-1.15-.74-1.6-1.25-.45-.51-.8-1.1-1.05-1.75-.25-.65-.38-1.32-.38-2Z"/>
        <path class="cls-5" d="m298.23,19.96v-10.65h1.68v9.17h5.71v1.48h-7.39Z"/>
        <path class="cls-5" d="m317.79,18.47v1.48h-7.3v-10.65h7.17v1.48h-5.49v3.03h4.75v1.39h-4.75v3.26h5.62Z"/>
        <path class="cls-5" d="m331.98,19.96v-7.67l-3.17,5.81h-.93l-3.18-5.81v7.67h-1.68v-10.65h1.8l3.53,6.51,3.52-6.51h1.8v10.65h-1.69Z"/>
        <path class="cls-5" d="m348.53,19.96v-7.67l-3.17,5.81h-.93l-3.18-5.81v7.67h-1.68v-10.65h1.8l3.53,6.51,3.52-6.51h1.8v10.65h-1.69Z"/>
        <path class="cls-5" d="m360.54,20.03c-.76,0-1.45-.15-2.08-.46-.62-.31-1.16-.71-1.61-1.22-.45-.5-.8-1.08-1.04-1.73-.25-.65-.37-1.31-.37-2s.13-1.39.39-2.04c.26-.65.62-1.22,1.07-1.72s1-.9,1.62-1.19c.62-.29,1.31-.44,2.05-.44s1.45.16,2.08.47,1.16.73,1.61,1.24c.44.51.79,1.09,1.03,1.73s.37,1.3.37,1.97c0,.71-.13,1.39-.38,2.04-.25.65-.61,1.22-1.07,1.72-.46.5-1,.89-1.63,1.19-.62.3-1.3.44-2.03.44Zm-3.39-5.4c0,.5.08.99.24,1.46.16.47.39.89.68,1.25s.65.65,1.07.86c.42.22.89.32,1.41.32s1.02-.11,1.43-.34c.42-.23.77-.52,1.06-.89s.51-.79.66-1.25.22-.93.22-1.41c0-.51-.08-1-.24-1.46-.16-.46-.39-.88-.68-1.23s-.65-.64-1.07-.85c-.42-.21-.88-.32-1.39-.32-.54,0-1.02.11-1.44.34s-.78.52-1.07.88-.51.77-.67,1.24c-.16.47-.23.94-.23,1.42Z"/>
        <path class="cls-5" d="m372.57,12.46v7.5h-1.68v-10.65h1.32l6.09,7.68v-7.66h1.69v10.63h-1.39l-6.03-7.5Z"/>
        <path class="cls-5" d="m392.19,11.81c-.1-.11-.25-.23-.43-.35-.19-.12-.41-.24-.67-.35-.25-.11-.54-.2-.84-.27-.31-.07-.62-.1-.94-.1-.71,0-1.23.13-1.57.39-.33.26-.5.62-.5,1.08,0,.26.05.47.16.64.11.17.27.31.49.44.22.13.5.24.82.33.33.1.71.2,1.16.31.54.13,1.03.27,1.46.44.43.16.8.35,1.1.58s.53.51.7.85c.17.34.25.74.25,1.22,0,.54-.1,1-.31,1.4-.21.39-.49.71-.84.95-.35.25-.77.43-1.24.54s-.97.17-1.51.17c-.81,0-1.59-.12-2.35-.37-.75-.24-1.44-.6-2.05-1.07l.77-1.44c.13.13.32.27.56.44s.53.31.85.44c.33.13.68.25,1.06.34.38.1.78.14,1.19.14.66,0,1.17-.11,1.53-.34.36-.23.54-.57.54-1.02,0-.27-.07-.5-.2-.68-.13-.18-.33-.34-.58-.47-.25-.14-.56-.26-.92-.37-.36-.11-.77-.23-1.23-.34-.53-.14-.99-.29-1.39-.44-.39-.15-.72-.34-.98-.56-.26-.22-.46-.48-.59-.77-.13-.29-.2-.65-.2-1.07,0-.52.1-.98.3-1.39.2-.4.47-.74.82-1.02.35-.27.75-.48,1.22-.62.47-.14.98-.21,1.53-.21.72,0,1.38.12,2,.35.61.23,1.14.52,1.6.85l-.76,1.38Z"/>
        <path class="cls-1" d="m128.11,51.16h-.96c-.34,1.73-1.04,3.37-2.11,4.93-.95,1.4-2.19,2.1-3.71,2.1-.47,0-1.23-.31-2.27-.93-1.11-.65-1.66-1.18-1.66-1.57,0-.11.05-.17.16-.17.11,0,.47.22,1.07.65s1,.65,1.21.65c.6,0,1.28-.16,2.04-.47s1.35-.67,1.8-1.09c1.57-1.49,2.35-2.6,2.35-3.31,0-.62-.17-1.14-.52-1.56-.24-.26-.58-.65-1.05-1.16l.78-1.88c.42.46.84.93,1.25,1.42.29.27.64.41,1.05.41h.58v2Zm-2.14-8.82l-.94,1.66-2.21-1.25.85-1.6,2.29,1.19Z"/>
        <path class="cls-1" d="m133.83,51.16h-.5c-.61,0-1.16-.26-1.64-.79l-.71-.81-.92.81c-.62.53-1.27.79-1.95.79h-.37v-2h.17c.91,0,1.63-.16,2.18-.47.17-.09.44-.34.81-.75.33-.37.52-.55.58-.55.13,0,.24.16.33.47.09.39.22.67.37.84.28.31.75.47,1.39.47h.27v2Zm-1.63-9.25l-1.13,1.74-1.86-1.32,1.27-1.77,1.71,1.35Z"/>
        <path class="cls-1" d="m145.26,51.16h-.69c-.27,0-.71-.17-1.3-.52s-.9-.52-.94-.52c-.12,0-.27.31-.43.93-.17.62-.28.93-.35.93-.02,0-.73-.4-2.14-1.19s-2.17-1.19-2.29-1.19c-.31,0-.57.1-.76.3-.17.23-.34.45-.51.67-.44.41-.95.61-1.51.61h-.84v-2h.64c.68,0,1.12-.02,1.33-.06.75-.14,1.23-.5,1.44-1.08.07-.16.23-.45.5-.88,1.09-1.13,2.22-1.7,3.37-1.7.31,0,.5.11.55.34-.03.3-.04.53-.03.69,0,.27.15.65.42,1.13.33.42.8.79,1.41,1.09.61.3,1.18.45,1.71.45h.43v2Zm-4.15-1.88c-.25-1.35-.63-2.02-1.15-2.02-.3,0-.66.07-1.06.21-.51.18-.75.4-.71.65,0,.14.33.38,1,.72.67.33,1.1.5,1.31.5.37,0,.57-.02.61-.06Z"/>
        <path class="cls-1" d="m151,51.16h-.55c-.6,0-1.15-.27-1.63-.81-.09-.11-.23-.33-.4-.67-.13-.25-.23-.38-.3-.38l-.92.92c-.62.62-1.27.93-1.95.93h-.37v-2h.17c.92,0,1.64-.17,2.18-.52.29-.2.59-.53.89-.99.23-.35.39-.52.5-.52.13,0,.24.17.33.52.1.46.24.79.4.99.28.35.75.52,1.4.52h.25v2Zm-.44,3.79l-1.1,1.66c-.3-.25-.8-.62-1.5-1.1-.24.27-.54.77-.91,1.49l-1.77-1.37,1.05-1.59c.33.28.84.66,1.54,1.13.23-.27.53-.75.92-1.43l1.77,1.22Z"/>
        <path class="cls-1" d="m158.11,51.16h-.55c-1.29,0-2.21-.92-2.75-2.76-.97,1.84-2.12,2.76-3.43,2.76h-.75v-2h.61c2.14,0,3.21-.88,3.21-2.65,0-1.4-.35-4.56-1.05-9.5-.06-.44.4-1.17,1.37-2.18.13,1.18.31,3.43.52,6.75.18,2.8.36,4.72.54,5.75.12.66.39,1.15.79,1.47.28.24.57.35.86.35h.61v2Z"/>
        <path class="cls-1" d="m168.41,34.92l-.86,2.24c-2.88,1-4.6,1.62-5.17,1.85-1.58.67-2.57,1.36-2.99,2.08.07.11.52.44,1.37.99,1.02.66,1.82,1.24,2.41,1.74,1.64,1.4,2.46,2.65,2.46,3.77,0,.2-.03.41-.09.64-.34,1.34-1.37,2.22-3.1,2.65-.81.19-2.11.28-3.89.28h-.78v-2h.58c3.92,0,6.06-.37,6.43-1.1.02-.04.03-.08.03-.11,0-.36-.48-.94-1.43-1.76-.78-.67-1.43-1.15-1.95-1.44-.08.04-.17.06-.3.06-.38,0-.89-.19-1.54-.57-.69-.42-1.03-.79-1.03-1.13,0-1.22.24-2.36.72-3.43,1.21-1.25,2.66-2.21,4.36-2.9,1-.35,2.49-.92,4.46-1.71l.31-.14Z"/>
        <path class="cls-1" d="m181.26,51.16h-2.44c-.27,0-.65.06-1.13.17-.54.13-.81.28-.81.44,0,.23.67.47,2.02.72.5.09.89.17,1.16.21.39.13.64.4.75.81,0,.76-.13,1.3-.4,1.63-.14.16-.7.59-1.69,1.3-1.86,1.33-4.26,2-7.19,2-1.23,0-2.24-.31-3.03-.93-.86-.67-1.29-1.6-1.29-2.8,0-1.1.3-2.23.89-3.4.54-1.04.94-1.56,1.22-1.56.09,0,.13.04.13.11-.81,1.78-1.22,2.95-1.22,3.51,0,2.14,1.54,3.21,4.63,3.21,1.13,0,2.54-.29,4.23-.86,1.6-.56,2.41-.93,2.41-1.13,0-.13-.62-.31-1.86-.52-1.37-.25-2.05-.63-2.05-1.16,0-.76.41-1.58,1.23-2.44.82-.86,1.61-1.3,2.36-1.3h2.05v2Zm-4.67,9.25l-1.12,1.66c-.31-.27-.82-.64-1.51-1.1-.22.27-.51.76-.86,1.46l-1.8-1.35,1.03-1.59c.35.28.87.66,1.57,1.13.21-.27.51-.75.92-1.43l1.77,1.22Z"/>
        <path class="cls-1" d="m187.23,46.18c0,1.68-.49,2.95-1.47,3.82-.21.18-.8.41-1.77.69-1.07.31-1.95.47-2.66.47h-.47v-2h.55c.72,0,1.54-.11,2.46-.33,1.12-.25,1.87-.59,2.22-1.02.24-.19.35-.49.35-.89,0-.37-.12-.79-.35-1.27-.15.41-.49.91-1,1.5-.43.22-.78.33-1.08.33-.26,0-.55-.07-.89-.2-.49-.2-.74-.67-.74-1.43,0-.93.3-1.91.89-2.95.51-.9.98-1.35,1.42-1.35.07,0,.13,0,.18.03.66.09,1.23.71,1.71,1.85.43,1,.64,1.91.64,2.73Zm-1.88-8.1l-1.13,1.74-1.85-1.3,1.27-1.77,1.71,1.33Zm.38,6.94c-.39-.91-.88-1.36-1.49-1.36-.3,0-.62.33-.95,1.01.27.43.55.7.84.79.18.06.37.08.58.08.68,0,1.02-.17,1.02-.52Z"/>
        <path class="cls-1" d="m210.31,46.37c0,.62-.11,1.28-.34,1.98-.26.8-.6,1.38-1.01,1.73-.19.16-.5.24-.92.24-.54,0-1.27-.33-2.21-.99l-1.01.91c-.68.61-1.42.92-2.21.92-.61,0-1.07-.05-1.36-.14,0,5.06-2.4,7.59-7.19,7.59-1.26,0-2.29-.33-3.07-.98-.85-.7-1.27-1.67-1.27-2.9,0-1.05.27-2.08.81-3.1.45-.85.8-1.27,1.05-1.27.06,0,.09.03.09.08l-.57,1.23c-.38.82-.57,1.58-.57,2.28,0,.81.5,1.47,1.51,1.97.82.41,1.68.61,2.58.61,1.34,0,2.59-.25,3.74-.75.75-.33,1.27-.73,1.54-1.2.25-.43.37-1.08.37-1.94,0-.96-.18-1.79-.55-2.49-.16-.28-.41-.71-.75-1.27.15-.37.47-.94.96-1.71.54.83.92,1.35,1.16,1.54.37.31.93.47,1.67.47,1.18,0,2.08-.5,2.7-1.49.05-.08.22-.41.52-1.01.15-.31.3-.47.45-.47.16,0,.24.08.24.25,0,.08-.02.19-.06.35-.04.16-.06.26-.06.32,0,.47.33.83.98,1.06.47.16,1,.24,1.57.24.05-.19.07-.38.07-.58,0-.43-.11-.89-.34-1.36l1.08-1.59c.26.37.38.86.38,1.47Z"/>
        <path class="cls-1" d="m225.45,51.16h-.5c-1.18,0-2.06-.61-2.63-1.83-.23-.48-.37-.9-.44-1.25-.06,0-.26.24-.61.72-.44.63-.89,1.1-1.33,1.39-.71.49-1.54.74-2.49.74-1.24,0-2.01-.2-2.32-.61-.19-.2-.28-.6-.28-1.22,0-1.1.11-1.66.34-1.66.14,0,.25.12.33.37.22.72,1.04,1.08,2.46,1.08.79,0,1.53-.19,2.21-.58.83-.47,1.25-1.12,1.25-1.94,0-1.31-.26-3.02-.77-5.13l1.02-1.8c.22.74.4,1.81.55,3.21.16,1.52.32,2.63.47,3.33.29,1.38.6,2.27.92,2.68.26.33.69.5,1.27.5h.55v2Z"/>
        <path class="cls-1" d="m234.13,51.16h-.58c-.83,0-1.71-.21-2.65-.64-.29-.14-.77-.36-1.42-.67,0,0-.51.22-1.55.65s-1.87.65-2.49.65h-.37v-2h.17c.39,0,.92-.05,1.6-.16.85-.12,1.28-.25,1.28-.4-.16-.22-.24-.48-.24-.79,0-1.04.55-2.13,1.66-3.27,1.01-1.05,1.83-1.57,2.46-1.57.39,0,.68.34.88,1.03.15.5.23,1,.23,1.5,0,1.08-.42,2.15-1.25,3.21,0,.29.64.44,1.91.44h.35v2Zm-1.25-12.59l-1.11,1.66c-.31-.27-.82-.64-1.51-1.1-.21.27-.5.77-.86,1.49l-1.8-1.37,1.05-1.59c.35.26.86.64,1.53,1.13.24-.27.55-.75.93-1.43l1.77,1.22Zm-.79,8.16c0-.4-.11-.74-.34-1.02-.26-.31-.58-.47-.96-.47s-.76.14-1.18.42c-.45.31-.68.65-.68,1.01,0,.21.18.47.54.78s.64.47.85.47c.15,0,.48-.17,1-.5.51-.34.77-.56.77-.69Z"/>
        <path class="cls-1" d="m245.51,51.16h-.69c-.27,0-.71-.17-1.3-.52s-.9-.52-.94-.52c-.12,0-.27.31-.43.93-.17.62-.28.93-.35.93-.02,0-.73-.4-2.14-1.19s-2.17-1.19-2.29-1.19c-.31,0-.57.1-.76.3-.17.23-.34.45-.51.67-.44.41-.95.61-1.51.61h-.84v-2h.64c.68,0,1.12-.02,1.33-.06.75-.14,1.23-.5,1.44-1.08.07-.16.23-.45.5-.88,1.09-1.13,2.22-1.7,3.37-1.7.31,0,.5.11.55.34-.03.3-.04.53-.03.69,0,.27.15.65.42,1.13.33.42.8.79,1.41,1.09.61.3,1.18.45,1.71.45h.43v2Zm-4.15-1.88c-.25-1.35-.63-2.02-1.15-2.02-.3,0-.66.07-1.06.21-.51.18-.75.4-.71.65,0,.14.33.38,1,.72.67.33,1.1.5,1.31.5.37,0,.57-.02.61-.06Z"/>
        <path class="cls-1" d="m249.99,37.74c-.2.46-.54,1.11-1.02,1.94,0,.78.15,1.98.44,3.58.29,1.6.44,2.82.44,3.64,0,.5-.09,1.09-.28,1.76-.2.71-.43,1.25-.71,1.61-.44.59-1.64.89-3.6.89h-.17l-.03-2h1.8c1.39,0,2.08-.58,2.08-1.74,0-.38-.22-1.96-.67-4.76-.47-2.96-.81-4.73-1.02-5.31l1.25-1.74c.18.41.34.82.5,1.25.24.46.57.76.99.88Z"/>
        <path class="cls-1" d="m254.22,48.31c-.27,2.03-.55,3.04-.83,3.04-.1,0-.17-.35-.21-1.06-.04-.93-.06-1.54-.06-1.83-.23-2.3-.61-5.51-1.16-9.63.07-.24.51-1.09,1.34-2.56,0,1.34.15,3.35.46,6.02.31,2.68.46,4.68.46,6.01Z"/>
        <path class="cls-1" d="m276.61,46.18c0,.41-.16.99-.47,1.74-.34.82-.67,1.32-.99,1.5-.97.56-2.3,1.03-3.99,1.42-1.86.43-3.69.65-5.48.65s-3.27-.25-4.39-.74c-1.41-.6-2.11-1.53-2.11-2.78,0-.87.21-1.73.64-2.59.38-.75.71-1.12.99-1.12.09,0,.14.05.14.14,0,.13-.13.46-.38.97-.25.51-.38.84-.38.97,0,1.03.59,1.81,1.77,2.35,1.06.48,2.44.72,4.16.72,2.21,0,4.39-.28,6.56-.84,1.97-.51,2.96-.93,2.96-1.27,0-.62-.32-1.35-.95-2.18l.89-2.08c.68,1,1.02,2.04,1.02,3.13Zm-6.12,10.38l-1.13,1.74-1.83-1.3,1.25-1.8,1.71,1.36Z"/>
        <path class="cls-1" d="m286.32,51.16h-.47c-2.14,0-3.32-1.37-3.54-4.12l-.35-4.46c-.21-2.32-.44-4.04-.69-5.17l1.02-2c.25.66.47,2.43.64,5.31.21,3.5.35,5.52.44,6.06.1.7.4,1.27.9,1.71.5.44,1.09.67,1.79.67h.27v2Z"/>
        <path class="cls-1" d="m292.03,51.16h-.5c-.61,0-1.16-.26-1.64-.79l-.71-.81-.92.81c-.62.53-1.27.79-1.95.79h-.37v-2h.17c.91,0,1.63-.16,2.18-.47.17-.09.44-.34.81-.75.33-.37.52-.55.58-.55.13,0,.24.16.33.47.09.39.22.67.37.84.28.31.75.47,1.39.47h.27v2Zm-.41-8.96l-1.1,1.66c-.3-.27-.8-.64-1.5-1.1-.24.27-.54.77-.91,1.49l-1.77-1.37,1.05-1.59c.33.26.84.64,1.54,1.13.23-.27.53-.75.92-1.43l1.77,1.22Z"/>
        <path class="cls-1" d="m305.14,51.16h-.41c-.39,0-.81-.16-1.27-.47-1.04-.69-2.54-2.03-4.49-4.02.07.21.08.5.03.89-.02.13-.03.25-.04.37l-.04.35c-.31,1.29-1.16,2.14-2.55,2.55-.72.22-1.84.33-3.37.33h-1.3v-2h1.1c3.23,0,5.04-.35,5.42-1.05-.07-.31-.2-.77-.41-1.39-.44-.76-1.35-1.49-2.71-2.21l-.17.08c-.08.04-.14.07-.2.08-.93-.61-1.57-1.21-1.94-1.8,0-.98.22-1.98.67-2.99,2.25-2.34,5.55-4.11,9.91-5.3l.33-.1-.88,2.27c-5.5,1.9-8.59,3.42-9.25,4.56.85.49,2.27,1.42,4.26,2.78.53.37,1.45,1.1,2.76,2.21,2.23,1.9,3.61,2.85,4.13,2.85h.41v2Z"/>
        <path class="cls-1" d="m309.61,37.74c-.2.46-.54,1.11-1.02,1.94,0,.78.15,1.98.44,3.58.29,1.6.44,2.82.44,3.64,0,.5-.09,1.09-.28,1.76-.2.71-.43,1.25-.71,1.61-.44.59-1.64.89-3.6.89h-.17l-.03-2h1.8c1.39,0,2.08-.58,2.08-1.74,0-.38-.22-1.96-.67-4.76-.47-2.96-.81-4.73-1.02-5.31l1.25-1.74c.18.41.34.82.5,1.25.24.46.57.76.99.88Z"/>
        <path class="cls-1" d="m313.85,48.31c-.27,2.03-.55,3.04-.83,3.04-.1,0-.17-.35-.21-1.06-.04-.93-.06-1.54-.06-1.83-.23-2.3-.61-5.51-1.16-9.63.07-.24.51-1.09,1.34-2.56,0,1.34.15,3.35.46,6.02.31,2.68.46,4.68.46,6.01Z"/>
        <path class="cls-1" d="m327.74,51.16h-.35c-1.01,0-1.72-.31-2.14-.93-.25-.38-.5-1.18-.77-2.41-.06.07-.31.35-.75.85-.3.35-.52.52-.67.52-.49,0-1.09-.09-1.8-.27-.87-.21-1.3-.47-1.3-.78,0-.69.33-1.44.99-2.27.74-.92,1.7-1.61,2.89-2.08,0-.12-.06-.44-.14-.96-.04-.23.1-.52.42-.87.32-.35.49-.49.51-.4.2,1.1.43,2.8.69,5.08.1.88.27,1.49.5,1.83.31.46.85.69,1.61.69h.3v2Zm-1.57-13.45l-1.1,1.64c-.3-.26-.8-.64-1.5-1.12-.22.28-.51.77-.88,1.47l-1.8-1.33,1.05-1.6c.35.27.87.65,1.57,1.13.21-.27.51-.75.92-1.42l1.74,1.22Zm-1.77,9.39c.02-.13,0-.41-.09-.84-.08-.49-.2-1.14-.34-1.94-.1.17-.27.46-.5.86-1.26.72-1.88,1.2-1.88,1.46s.94.4,2.8.45Z"/>
        <path class="cls-1" d="m342.08,51.16h-.55c-.46,0-.93-.29-1.4-.88-.47-.59-.67-.89-.59-.89l-.52.88c-.35.58-.68.86-.99.86-.42,0-.84-.25-1.25-.74-.41-.49-.63-.74-.67-.74-1.37,1.06-2.37,1.59-3.02,1.59-.97,0-1.66-.39-2.05-1.16-.14-.26-.22-.4-.23-.4-.1,0-.33.15-.68.45-.4.37-.72.6-.98.69-.54.22-1.06.33-1.57.33h-.23v-2h.5c.79,0,1.46-.17,2-.5.33-.2.67-.52,1.02-.96.25-.33.44-.5.55-.5s.22.17.31.52c.12.44.25.76.38.93.25.35.64.52,1.16.52,1.03,0,1.72-.19,2.08-.58.17-.19.45-.56.84-1.1.25-.35.45-.52.58-.52.22,0,.33.11.33.33,0,.13-.07.4-.2.81,0,.21.19.43.58.68.39.25.7.37.95.37.16,0,.32-.04.47-.13.11-.46.16-.8.14-1.01.26-.35.63-.72,1.13-1.1,0,.81.18,1.42.55,1.83.25.27.5.41.78.41h.58v2Z"/>
        <path class="cls-1" d="m347.86,51.16h-.55c-.6,0-1.15-.27-1.63-.81-.09-.11-.23-.33-.4-.67-.13-.25-.23-.38-.3-.38l-.92.92c-.62.62-1.27.93-1.95.93h-.37v-2h.17c.92,0,1.64-.17,2.18-.52.29-.2.59-.53.89-.99.23-.35.39-.52.5-.52.13,0,.24.17.33.52.1.46.24.79.4.99.28.35.75.52,1.4.52h.25v2Zm-.44,3.79l-1.1,1.66c-.3-.25-.8-.62-1.5-1.1-.24.27-.54.77-.91,1.49l-1.77-1.37,1.05-1.59c.33.28.84.66,1.54,1.13.23-.27.53-.75.92-1.43l1.77,1.22Z"/>
        <path class="cls-1" d="m353.58,51.16h-.5c-.61,0-1.16-.26-1.64-.79l-.71-.81-.92.81c-.62.53-1.27.79-1.95.79h-.37v-2h.17c.91,0,1.63-.16,2.18-.47.17-.09.44-.34.81-.75.33-.37.52-.55.58-.55.13,0,.24.16.33.47.09.39.22.67.37.84.28.31.75.47,1.39.47h.27v2Zm-1.63-9.25l-1.13,1.74-1.86-1.32,1.27-1.77,1.71,1.35Z"/>
        <path class="cls-1" d="m363.87,34.92l-.86,2.24c-2.88,1-4.6,1.62-5.17,1.85-1.58.67-2.57,1.36-2.99,2.08.07.11.52.44,1.37.99,1.02.66,1.82,1.24,2.41,1.74,1.64,1.4,2.46,2.65,2.46,3.77,0,.2-.03.41-.09.64-.34,1.34-1.37,2.22-3.1,2.65-.81.19-2.11.28-3.89.28h-.78v-2h.58c3.92,0,6.06-.37,6.43-1.1.02-.04.03-.08.03-.11,0-.36-.48-.94-1.43-1.76-.78-.67-1.43-1.15-1.95-1.44-.08.04-.17.06-.3.06-.38,0-.89-.19-1.54-.57-.69-.42-1.03-.79-1.03-1.13,0-1.22.24-2.36.72-3.43,1.21-1.25,2.66-2.21,4.36-2.9,1-.35,2.49-.92,4.46-1.71l.31-.14Z"/>
      </g>
    </g>
  </g>
</svg>