<?xml version="1.0" encoding="utf-8"?>
<!-- Generator: Adobe Illustrator 26.2.1, SVG Export Plug-In . SVG Version: 6.00 Build 0)  -->
<svg version="1.1" id="Layer_1" xmlns="http://www.w3.org/2000/svg" xmlns:xlink="http://www.w3.org/1999/xlink" x="0px" y="0px"
	 viewBox="0 0 387.2 75.9" style="enable-background:new 0 0 387.2 75.9;" xml:space="preserve">
<style type="text/css">
	.st0{fill:#C59031;}
	.st1{fill:#818181;}
	.st2{fill-rule:evenodd;clip-rule:evenodd;fill:#CCCCCC;}
	.st3{fill-rule:evenodd;clip-rule:evenodd;fill:#E6E6E5;}
	.st4{fill:#FFFFFF;}
</style>
<g>
	<g>
		<g>
			<path class="st0" d="M46.2,7h3v11.6h15.7v3H49.2v30.2c-0.5,2.1-1.2,3.2-1.6,5.5c-0.1-1.9-0.9-3.3-1.4-5.5V21.5H30.5v-3h15.7V7
				L46.2,7z"/>
			<g>
				<path class="st1" d="M88.7,58.9c-1.1-0.3-25.9-7.8-36.8,3.5c-0.1,0.1-0.2,0.3-0.3,0.4c-1.1,2.7-1.7,3.3-3.9,3.3
					c-2.3,0-2.8-0.7-3.9-3.3c-0.1-0.2-0.2-0.3-0.3-0.4C32.6,51.1,7.7,58.6,6.7,58.9c-0.7,0.2-1.1,1-0.9,1.7c0.2,0.7,1,1.1,1.7,0.9
					c0.2-0.1,24-7.2,33.9,2.6c1.1,2.7,2.4,4.8,6.3,4.8c3.9,0,5.2-2,6.3-4.8c9.9-9.8,33.6-2.7,33.9-2.6c0.7,0.2,1.5-0.2,1.7-0.9
					C89.8,59.9,89.4,59.1,88.7,58.9"/>
				<path class="st2" d="M46.6,62.5c-4.3-6.3-18.2-13.2-39.8-6.3c3.2-4.3,2.2-3.3,2.2-3.3S37.4,44.5,46.6,62.5"/>
				<path class="st3" d="M47.7,59c-1.9-4.9-14-13.2-32.7-9.1c2.2-2.9,2.5-3.2,2.5-3.2S41.4,43.2,47.7,59"/>
				<path class="st2" d="M48.8,62.5c4.3-6.3,18.2-13.2,39.8-6.3c-3.2-4.3-2.2-3.3-2.2-3.3S58,44.5,48.8,62.5"/>
				<path class="st3" d="M47.7,59c1.9-4.9,14-13.2,32.7-9.1c-2.2-2.9-2.5-3.2-2.5-3.2S53.9,43.2,47.7,59"/>
			</g>
		</g>
	</g>
	<g>
		<path class="st4" d="M100.5,29.9V19.3h7.1v1.5h-5.4v3.2h4.5v1.4h-4.5v4.6H100.5z"/>
		<path class="st4" d="M113.3,29.9V19.3h4.6c0.5,0,0.9,0.1,1.3,0.3c0.4,0.2,0.8,0.5,1,0.8c0.3,0.3,0.5,0.7,0.7,1.1
			c0.2,0.4,0.2,0.8,0.2,1.3c0,0.4,0,0.7-0.1,1c-0.1,0.3-0.2,0.6-0.4,0.9c-0.2,0.3-0.4,0.5-0.7,0.7c-0.3,0.2-0.5,0.4-0.9,0.5l2.5,4
			h-1.9l-2.3-3.7H115v3.7H113.3z M115,24.7h2.9c0.2,0,0.5-0.1,0.7-0.2s0.4-0.2,0.5-0.4c0.1-0.2,0.2-0.4,0.3-0.6
			c0.1-0.2,0.1-0.5,0.1-0.8s0-0.5-0.1-0.8c-0.1-0.2-0.2-0.4-0.4-0.6c-0.2-0.2-0.3-0.3-0.5-0.4s-0.4-0.2-0.6-0.2H115V24.7z"/>
		<path class="st4" d="M127.3,29.9V19.3h1.7v10.6H127.3z"/>
		<path class="st4" d="M142.8,28.4v1.5h-7.3V19.3h7.2v1.5h-5.5v3h4.8v1.4h-4.8v3.3H142.8z"/>
		<path class="st4" d="M150.3,22.4v7.5h-1.7V19.3h1.3L156,27v-7.7h1.7v10.6h-1.4L150.3,22.4z"/>
		<path class="st4" d="M164.2,29.9V19.3h3.8c0.9,0,1.6,0.1,2.3,0.4c0.6,0.3,1.2,0.7,1.6,1.1c0.4,0.5,0.8,1,1,1.7s0.3,1.3,0.3,2.1
			c0,0.8-0.1,1.5-0.4,2.2c-0.2,0.7-0.6,1.2-1,1.7c-0.5,0.5-1,0.8-1.6,1.1c-0.6,0.3-1.4,0.4-2.1,0.4H164.2z M171.5,24.6
			c0-0.6-0.1-1.1-0.2-1.5c-0.2-0.5-0.4-0.9-0.7-1.2s-0.7-0.6-1.1-0.8c-0.4-0.2-0.9-0.3-1.5-0.3h-2.1v7.7h2.1c0.6,0,1.1-0.1,1.5-0.3
			c0.4-0.2,0.8-0.5,1.1-0.8c0.3-0.3,0.5-0.8,0.7-1.2C171.4,25.7,171.5,25.1,171.5,24.6z"/>
		<path class="st4" d="M179,29.9V19.3h1.7v9.2h5.7v1.5H179z"/>
		<path class="st4" d="M190.9,19.3l2.9,5.3l3-5.3h1.8l-4,6.8v3.8H193v-3.8l-3.9-6.8H190.9z"/>
		<path class="st4" d="M215.1,19.3h1.5l4.2,10.6H219l-1.1-2.9h-4.1l-1.1,2.9h-1.8L215.1,19.3z M217.5,25.8l-1.7-4.6l-1.8,4.6H217.5z
			"/>
		<path class="st4" d="M226.2,29.9V19.3h4.6c0.5,0,0.9,0.1,1.3,0.3c0.4,0.2,0.8,0.5,1,0.8c0.3,0.3,0.5,0.7,0.7,1.1
			c0.2,0.4,0.2,0.8,0.2,1.3c0,0.4,0,0.7-0.1,1c-0.1,0.3-0.2,0.6-0.4,0.9c-0.2,0.3-0.4,0.5-0.7,0.7c-0.3,0.2-0.5,0.4-0.9,0.5l2.5,4
			h-1.9l-2.3-3.7h-2.5v3.7H226.2z M227.9,24.7h2.9c0.2,0,0.5-0.1,0.7-0.2s0.4-0.2,0.5-0.4c0.1-0.2,0.2-0.4,0.3-0.6
			c0.1-0.2,0.1-0.5,0.1-0.8s0-0.5-0.1-0.8c-0.1-0.2-0.2-0.4-0.4-0.6c-0.2-0.2-0.3-0.3-0.5-0.4s-0.4-0.2-0.6-0.2h-2.9V24.7z"/>
		<path class="st4" d="M243.2,19.3h1.5l4.2,10.6h-1.8l-1.1-2.9h-4.1l-1.1,2.9h-1.8L243.2,19.3z M245.6,25.8l-1.7-4.6l-1.8,4.6H245.6
			z"/>
		<path class="st4" d="M262.6,27.2c0,0.4-0.1,0.8-0.3,1.2s-0.4,0.6-0.7,0.9c-0.3,0.2-0.6,0.4-1,0.5c-0.4,0.1-0.8,0.2-1.3,0.2h-5.1
			V19.3h5.5c0.4,0,0.7,0.1,1,0.2c0.3,0.2,0.6,0.4,0.8,0.6s0.4,0.5,0.5,0.9c0.1,0.3,0.2,0.7,0.2,1c0,0.5-0.1,1-0.4,1.5
			c-0.3,0.5-0.6,0.8-1.1,1c0.6,0.2,1.1,0.5,1.4,1C262.4,25.9,262.6,26.5,262.6,27.2z M255.9,20.7v3.1h3.1c0.2,0,0.4,0,0.6-0.1
			c0.2-0.1,0.3-0.2,0.5-0.3c0.1-0.1,0.2-0.3,0.3-0.5c0.1-0.2,0.1-0.4,0.1-0.6c0-0.5-0.1-0.8-0.4-1.1s-0.6-0.4-1-0.4H255.9z
			 M260.9,26.9c0-0.2,0-0.4-0.1-0.6s-0.2-0.4-0.3-0.5c-0.1-0.2-0.3-0.3-0.5-0.4c-0.2-0.1-0.4-0.1-0.6-0.1h-3.5v3.3h3.4
			c0.2,0,0.4,0,0.6-0.1c0.2-0.1,0.4-0.2,0.5-0.3c0.1-0.1,0.2-0.3,0.3-0.5S260.9,27.1,260.9,26.9z"/>
		<path class="st4" d="M268.5,29.9V19.3h1.7v10.6H268.5z"/>
		<path class="st4" d="M276,24.5c0-0.6,0.1-1.3,0.3-1.9c0.2-0.6,0.6-1.2,1-1.7c0.4-0.5,1-0.9,1.6-1.2c0.6-0.3,1.4-0.5,2.2-0.5
			c1,0,1.8,0.2,2.5,0.6c0.7,0.4,1.2,1,1.6,1.7l-1.3,0.9c-0.2-0.3-0.3-0.6-0.5-0.8c-0.2-0.2-0.4-0.4-0.7-0.5s-0.5-0.2-0.8-0.3
			c-0.3-0.1-0.5-0.1-0.8-0.1c-0.6,0-1,0.1-1.5,0.3s-0.8,0.5-1.1,0.9s-0.5,0.8-0.6,1.2c-0.1,0.5-0.2,0.9-0.2,1.4c0,0.5,0.1,1,0.3,1.5
			c0.2,0.5,0.4,0.9,0.7,1.2c0.3,0.4,0.7,0.6,1.1,0.9c0.4,0.2,0.9,0.3,1.4,0.3c0.3,0,0.5,0,0.8-0.1c0.3-0.1,0.5-0.2,0.8-0.3
			s0.5-0.3,0.7-0.5c0.2-0.2,0.4-0.5,0.5-0.8l1.4,0.8c-0.2,0.4-0.4,0.8-0.7,1.1c-0.3,0.3-0.7,0.6-1,0.8s-0.8,0.4-1.2,0.5
			c-0.4,0.1-0.9,0.2-1.3,0.2c-0.8,0-1.4-0.2-2.1-0.5c-0.6-0.3-1.2-0.7-1.6-1.3c-0.5-0.5-0.8-1.1-1-1.8C276.1,25.9,276,25.2,276,24.5
			z"/>
		<path class="st4" d="M298.7,24.5c0-0.6,0.1-1.3,0.3-1.9c0.2-0.6,0.6-1.2,1-1.7c0.4-0.5,1-0.9,1.6-1.2c0.6-0.3,1.4-0.5,2.2-0.5
			c1,0,1.8,0.2,2.5,0.6c0.7,0.4,1.2,1,1.6,1.7l-1.3,0.9c-0.2-0.3-0.3-0.6-0.5-0.8c-0.2-0.2-0.4-0.4-0.7-0.5s-0.5-0.2-0.8-0.3
			c-0.3-0.1-0.5-0.1-0.8-0.1c-0.6,0-1,0.1-1.5,0.3s-0.8,0.5-1.1,0.9s-0.5,0.8-0.6,1.2c-0.1,0.5-0.2,0.9-0.2,1.4c0,0.5,0.1,1,0.3,1.5
			c0.2,0.5,0.4,0.9,0.7,1.2c0.3,0.4,0.7,0.6,1.1,0.9c0.4,0.2,0.9,0.3,1.4,0.3c0.3,0,0.5,0,0.8-0.1c0.3-0.1,0.5-0.2,0.8-0.3
			s0.5-0.3,0.7-0.5c0.2-0.2,0.4-0.5,0.5-0.8l1.4,0.8c-0.2,0.4-0.4,0.8-0.7,1.1c-0.3,0.3-0.7,0.6-1,0.8s-0.8,0.4-1.2,0.5
			c-0.4,0.1-0.9,0.2-1.3,0.2c-0.8,0-1.4-0.2-2.1-0.5c-0.6-0.3-1.2-0.7-1.6-1.3c-0.5-0.5-0.8-1.1-1-1.8
			C298.8,25.9,298.7,25.2,298.7,24.5z"/>
		<path class="st4" d="M322.5,19.3v10.6h-1.7v-4.7h-5.4v4.7h-1.7V19.3h1.7v4.5h5.4v-4.5H322.5z"/>
		<path class="st4" d="M333.4,28.5c0.6,0,1-0.1,1.4-0.3c0.4-0.2,0.7-0.5,0.9-0.9c0.2-0.4,0.4-0.8,0.5-1.2c0.1-0.5,0.1-0.9,0.1-1.4
			v-5.4h1.7v5.4c0,0.7-0.1,1.4-0.3,2.1s-0.4,1.2-0.8,1.7c-0.4,0.5-0.8,0.9-1.4,1.1c-0.6,0.3-1.3,0.4-2.1,0.4c-0.8,0-1.6-0.1-2.2-0.4
			c-0.6-0.3-1.1-0.7-1.4-1.2c-0.4-0.5-0.6-1.1-0.8-1.7s-0.2-1.3-0.2-2v-5.4h1.7v5.4c0,0.5,0,1,0.1,1.4c0.1,0.5,0.3,0.9,0.5,1.2
			c0.2,0.4,0.5,0.6,0.9,0.9C332.4,28.4,332.9,28.5,333.4,28.5z"/>
		<path class="st4" d="M344.4,29.9V19.3h4.6c0.5,0,0.9,0.1,1.3,0.3c0.4,0.2,0.8,0.5,1,0.8c0.3,0.3,0.5,0.7,0.7,1.1
			c0.2,0.4,0.2,0.8,0.2,1.3c0,0.4,0,0.7-0.1,1c-0.1,0.3-0.2,0.6-0.4,0.9c-0.2,0.3-0.4,0.5-0.7,0.7c-0.3,0.2-0.5,0.4-0.9,0.5l2.5,4
			h-1.9l-2.3-3.7H346v3.7H344.4z M346,24.7h2.9c0.2,0,0.5-0.1,0.7-0.2s0.4-0.2,0.5-0.4c0.1-0.2,0.2-0.4,0.3-0.6
			c0.1-0.2,0.1-0.5,0.1-0.8s0-0.5-0.1-0.8c-0.1-0.2-0.2-0.4-0.4-0.6c-0.2-0.2-0.3-0.3-0.5-0.4s-0.4-0.2-0.6-0.2H346V24.7z"/>
		<path class="st4" d="M357.7,24.5c0-0.6,0.1-1.3,0.3-1.9c0.2-0.6,0.6-1.2,1-1.7c0.4-0.5,1-0.9,1.6-1.2c0.6-0.3,1.4-0.5,2.2-0.5
			c1,0,1.8,0.2,2.5,0.6c0.7,0.4,1.2,1,1.6,1.7l-1.3,0.9c-0.2-0.3-0.3-0.6-0.5-0.8c-0.2-0.2-0.4-0.4-0.7-0.5s-0.5-0.2-0.8-0.3
			c-0.3-0.1-0.5-0.1-0.8-0.1c-0.6,0-1,0.1-1.5,0.3s-0.8,0.5-1.1,0.9s-0.5,0.8-0.6,1.2c-0.1,0.5-0.2,0.9-0.2,1.4c0,0.5,0.1,1,0.3,1.5
			c0.2,0.5,0.4,0.9,0.7,1.2c0.3,0.4,0.7,0.6,1.1,0.9c0.4,0.2,0.9,0.3,1.4,0.3c0.3,0,0.5,0,0.8-0.1c0.3-0.1,0.5-0.2,0.8-0.3
			s0.5-0.3,0.7-0.5c0.2-0.2,0.4-0.5,0.5-0.8l1.4,0.8c-0.2,0.4-0.4,0.8-0.7,1.1c-0.3,0.3-0.7,0.6-1,0.8s-0.8,0.4-1.2,0.5
			c-0.4,0.1-0.9,0.2-1.3,0.2c-0.8,0-1.4-0.2-2.1-0.5c-0.6-0.3-1.2-0.7-1.6-1.3c-0.5-0.5-0.8-1.1-1-1.8
			C357.8,25.9,357.7,25.2,357.7,24.5z"/>
		<path class="st4" d="M381.5,19.3v10.6h-1.7v-4.7h-5.4v4.7h-1.7V19.3h1.7v4.5h5.4v-4.5H381.5z"/>
		<path class="st0" d="M123.1,59.5c-1.8,0-3.2-0.7-3.2-2.1c0-0.5,0.2-1.2,0.6-2.1c0.7-1.6,2.6-3.2,5.6-4.8l-0.1-1.3
			c0.4-0.5,0.9-1,1.4-1.4h0.2c0.1,2.7,0.1,5.5,0.1,8.2c0,1.2,0.1,2,0.7,2.5c0.4,0.4,1.1,0.5,1.8,0.5h0.4v2.2h-0.4
			c-1.7,0-3-0.5-3.6-2.4C125.5,59.1,124.4,59.5,123.1,59.5z M126.2,52.5c-3.1,1.6-4.8,2.9-4.8,3.8c0,0.7,1.1,1,2.2,1
			c0.8,0,1.6-0.2,2.6-0.5L126.2,52.5z M124.1,46.2c-0.7-0.7-1.4-1.2-2.1-1.8c0.5-0.6,0.9-1.2,1.4-1.7c0.7,0.6,1.3,1.1,2,1.9
			C124.9,45.3,124.6,45.8,124.1,46.2z M127.5,46c-0.7-0.7-1.4-1.2-2.1-1.8c0.5-0.6,0.9-1.2,1.4-1.7c0.7,0.6,1.3,1.1,2,1.9
			C128.3,45.1,128,45.6,127.5,46z"/>
		<path class="st0" d="M130.9,58.9c1.4,0,2.8-0.5,3-1.5l0.5-1.9l1.2-0.9l0.1,0.1c-0.2,0.9-0.4,1.7-0.4,2c0,0.6,0.2,1.1,0.6,1.5
			c0.6,0.5,1.2,0.7,2.2,0.7h0.3v2.2h-0.4c-1.7,0-3-0.5-3.6-1.8h-0.1c-0.6,1.2-2,1.8-3.5,1.8h-0.3c-1,0-1.2-0.7-1.2-1.2
			c0-0.4,0.3-1.1,1.2-1.1H130.9z M132.9,68.1c-0.7-0.7-1.4-1.2-2.1-1.8c0.5-0.6,0.9-1.2,1.4-1.7c0.7,0.6,1.3,1.1,2,1.9
			C133.8,67.2,133.4,67.7,132.9,68.1z M136.3,67.9c-0.7-0.7-1.4-1.2-2.1-1.8c0.5-0.6,0.9-1.2,1.4-1.7c0.7,0.6,1.3,1.1,2,1.9
			C137.2,67,136.8,67.5,136.3,67.9z"/>
		<path class="st0" d="M138.1,58.9c1.5,0,2.7-0.1,3.5-0.3c0.6-0.2,1-0.5,1-0.8c0-0.8-0.8-2.5-1.8-4.3c0.4-0.8,0.9-1.4,1.3-2h0.1
			c0.8,1.4,1.8,3.6,1.8,5.4c0,1.3-0.5,2.3-1.2,3.3c-0.8,0.8-2,1.1-4.7,1.1h-0.2c-1,0-1.2-0.7-1.2-1.2c0-0.4,0.3-1.1,1.2-1.1H138.1z
			 M141.4,64.5c0.7,0.5,1.4,1.2,2.1,1.9c-0.4,0.6-0.9,1.2-1.5,1.7c-0.7-0.7-1.4-1.2-2.1-1.8C140.4,65.6,140.9,65,141.4,64.5z"/>
		<path class="st0" d="M152.8,55.1c1,2.4,1.9,3.8,4,3.8h0.3v2.2h-0.4c-0.8,0-1.3-0.2-1.8-0.6h-0.1c0,0.2,0,0.4,0,0.6
			c0,0.8-0.2,1.9-0.7,2.7c-1.4,2.4-2.9,3.5-4.2,3.5c-1.3,0-2.9-0.6-4.4-1.4l0.3-0.6c0.5,0.2,1.1,0.4,2,0.4c2.4,0,5.4-2.7,5.8-5.3
			c-0.1-0.2-0.2-0.5-0.5-0.8c-0.7-1-1.1-1.8-1.5-2.6c0.4-0.8,0.7-1.5,1-2L152.8,55.1z"/>
		<path class="st0" d="M157.9,58.9c1.5,0,2.7-0.1,4.6-0.9v-0.1c-0.8-0.5-1.6-1.5-2.5-2.3c-0.4-0.4-0.9-0.7-1.2-0.7h-0.5l-0.1,0
			l0.7-2l0.5-0.1c1.4-0.3,3-0.6,4.7-0.6c2,0,3.8,0.3,5.1,0.9l-0.6,1.9l-3.1,2.8v0.1c1.2,0.6,2.5,1,4,1h0.7v2.2h-0.5
			c-2,0-4.1-0.7-5.9-2.1h-0.1c-2.2,1.6-4,2.1-6.2,2.1h-0.5c-1,0-1.2-0.7-1.2-1.2c0-0.4,0.3-1.1,1.2-1.1H157.9z M164.2,57.2
			c1-0.7,2.1-1.5,3.2-2.6v-0.1c-1-0.2-2-0.4-3.3-0.4c-1.1,0-2.2,0.1-3.3,0.3v0.1c0.3,0.3,0.7,0.7,1,1
			C162.6,56,163.3,56.6,164.2,57.2L164.2,57.2z"/>
		<path class="st0" d="M169.9,58.9c0.6,0,1.2-0.1,2-0.5c0.6-0.4,0.9-1,0.9-1.9c0-2.8-0.2-5.9-0.5-9.1c-0.1-0.8-0.2-1.5-0.2-2.2
			c0-0.4,0.2-0.8,0.5-1.2c0.2-0.3,0.6-0.6,1-1l0.1,0.1c0,1.1,0.5,2.5,1.4,4c-0.3,0.3-0.7,0.6-1.1,0.9c0.1,2,0.2,4.1,0.2,6.1
			c0,1.9-0.2,3.4-0.7,4.4c-0.4,0.9-0.8,1.6-1.6,2c-0.7,0.4-1.5,0.5-2.2,0.5h-0.3c-1,0-1.2-0.7-1.2-1.2c0-0.4,0.3-1.1,1.2-1.1H169.9z
			"/>
		<path class="st0" d="M179.9,61.4c0.2-1.1,0.2-2.4,0.2-3.5v-1.7c0-3.2-0.4-7.9-0.6-10.9c0.5-0.6,1.2-1.4,1.7-1.9l0.2,0.1
			c0.4,3.8,0.5,8.3,0.5,12.4c0,1.1,0,2.1-0.1,2.9c-0.1,1-0.5,1.7-1.5,2.8L179.9,61.4z"/>
		<path class="st0" d="M195.7,59.5c-1.8,0-3.2-0.7-3.2-2.1c0-0.5,0.2-1.2,0.6-2.1c0.7-1.6,2.6-3.2,5.6-4.8l-0.1-1.3
			c0.4-0.5,0.9-1,1.4-1.4h0.2c0.1,2.7,0.1,5.5,0.1,8.2c0,1.2,0.1,2,0.7,2.5c0.4,0.4,1.1,0.5,1.8,0.5h0.4v2.2h-0.4
			c-1.7,0-3-0.5-3.6-2.4C198.2,59.1,197.1,59.5,195.7,59.5z M198.8,52.5c-3.1,1.6-4.8,2.9-4.8,3.8c0,0.7,1.1,1,2.2,1
			c0.8,0,1.6-0.2,2.6-0.5L198.8,52.5z M196.8,46.2c-0.7-0.7-1.4-1.2-2.1-1.8c0.5-0.6,0.9-1.2,1.4-1.7c0.7,0.6,1.3,1.1,2,1.9
			C197.6,45.3,197.2,45.8,196.8,46.2z M200.1,46c-0.7-0.7-1.4-1.2-2.1-1.8c0.5-0.6,0.9-1.2,1.4-1.7c0.7,0.6,1.3,1.1,2,1.9
			C201,45.1,200.6,45.6,200.1,46z"/>
		<path class="st0" d="M204.7,58.9c1.5,0,2.8-0.1,3.8-0.4c1.1-0.3,2.1-1,2.1-1.5c0-0.1,0-0.3,0-0.4c-0.6,0.1-1.4,0.1-2,0.1
			c-2,0-3.6-0.5-4.2-1.9c-0.2-0.4-0.3-0.8-0.3-1.3c0-1.3,0.5-2.6,1.3-3.5c0.7-0.7,1.5-1.2,2.3-1.2c1.4,0,2.6,1.4,3.4,3.5
			c0.4,1.2,0.7,2.5,0.7,4.2c0,1.1-0.3,2.1-0.9,2.8c-1.1,1.3-3.1,1.7-6.3,1.7h-1.4c-1,0-1.2-0.7-1.2-1.2c0-0.4,0.3-1.1,1.2-1.1H204.7
			z M205.3,47.3c-0.7-0.7-1.4-1.2-2.1-1.8c0.5-0.6,0.9-1.2,1.4-1.7c0.7,0.6,1.3,1.1,2,1.9C206.1,46.4,205.8,46.8,205.3,47.3z
			 M207.3,51.3c-1.2,0-2.1,0.9-2.1,1.6c0,1.4,2.3,1.9,5.1,1.8C209.9,53,208.7,51.3,207.3,51.3z M208.7,47.1
			c-0.7-0.7-1.4-1.2-2.1-1.8c0.5-0.6,0.9-1.2,1.4-1.7c0.7,0.6,1.3,1.1,2,1.9C209.5,46.2,209.2,46.6,208.7,47.1z"/>
		<path class="st0" d="M216.2,61.4c0.2-1.1,0.2-2.4,0.2-3.5v-1.7c0-3.2-0.4-7.9-0.6-10.9c0.5-0.6,1.2-1.4,1.7-1.9l0.2,0.1
			c0.4,3.8,0.5,8.3,0.5,12.4c0,1.1,0,2.1-0.1,2.9c-0.1,1-0.5,1.7-1.5,2.8L216.2,61.4z"/>
		<path class="st0" d="M235,61.1h-0.3c-1.6,0-2.9-0.7-3.6-2.9H231c-0.1,0.7-0.5,1.2-1.3,1.7c-1.2,0.7-2.4,1.2-3.5,1.2
			c-2,0-3.1-1.2-3.1-3.3c0-0.4,0-0.9,0.1-1.3l0.7-0.1c0.1,1.5,0.8,2.4,2.5,2.4c0.9,0,2-0.4,2.9-0.9c0.7-0.4,1.1-0.9,1.1-1.3
			c0-1.2-0.6-3.5-1.5-6.5c0.4-0.6,0.8-1.2,1.2-1.8l0.1,0.1c0.7,2.5,1.2,5.2,1.7,7.8c0.3,1.7,1.5,2.7,2.8,2.7h0.3V61.1z"/>
		<path class="st0" d="M235.4,58.9c1.5,0,2.7-0.5,2.9-1.5c0.1-0.7,0.3-1.4,0.5-2c0.4-0.4,0.8-0.7,1.2-0.9l0.1,0.1
			c-0.2,0.6-0.3,1.1-0.3,1.7c0,0.9,0.2,1.5,1,2c1-1.5,2.1-3.1,3.6-4.4c1.1-1,2.4-1.8,3.9-1.8c2.5,0,4,1.8,4,3.9c0,1-0.4,2.1-0.9,3.1
			h2.3v2.2h-0.5c-1.8,0-3.4-0.2-5.3-0.6c-1.1,0.3-2.3,0.6-4.1,0.6c-2.3,0-4-0.5-5-1.8h-0.1c-0.9,1.5-2.5,1.8-3.6,1.8H235
			c-1,0-1.2-0.7-1.2-1.2c0-0.4,0.3-1.1,1.2-1.1H235.4z M244.9,58.9c1.8,0,3.6-0.4,4.6-0.8c0.9-0.4,1.4-0.8,1.4-1.3
			c-0.2-1.5-1.7-2.6-3.3-2.6c-2.1,0-4,1.7-5.9,4.4C242.3,58.7,243.3,58.9,244.9,58.9z"/>
		<path class="st0" d="M254.1,58.9c0.6,0,1.2-0.1,2-0.5c0.6-0.4,0.9-1,0.9-1.9c0-2.8-0.2-5.9-0.5-9.1c-0.1-0.8-0.2-1.5-0.2-2.2
			c0-0.4,0.2-0.8,0.5-1.2c0.2-0.3,0.6-0.6,1-1l0.1,0.1c0,1.1,0.5,2.5,1.4,4c-0.3,0.3-0.7,0.6-1.1,0.9c0.1,2,0.2,4.1,0.2,6.1
			c0,1.9-0.2,3.4-0.7,4.4c-0.4,0.9-0.8,1.6-1.6,2c-0.7,0.4-1.5,0.5-2.2,0.5h-0.3c-1,0-1.2-0.7-1.2-1.2c0-0.4,0.3-1.1,1.2-1.1H254.1z
			"/>
		<path class="st0" d="M263.3,61.4c0.2-1.1,0.2-2.4,0.2-3.5v-1.7c0-3.2-0.4-7.9-0.6-10.9c0.5-0.6,1.2-1.4,1.7-1.9l0.2,0.1
			c0.4,3.8,0.5,8.3,0.5,12.4c0,1.1,0,2.1-0.1,2.9c-0.1,1-0.5,1.7-1.5,2.8L263.3,61.4z"/>
		<path class="st0" d="M279.1,59.5c-1.8,0-3.2-0.7-3.2-2.1c0-0.5,0.2-1.2,0.6-2.1c0.7-1.6,2.6-3.2,5.6-4.8l-0.1-1.3
			c0.4-0.5,0.9-1,1.4-1.4h0.2c0.1,2.7,0.1,5.5,0.1,8.2c0,1.2,0.1,2,0.7,2.5c0.4,0.4,1.1,0.5,1.8,0.5h0.4v2.2h-0.4
			c-1.7,0-3-0.5-3.6-2.4C281.6,59.1,280.5,59.5,279.1,59.5z M282.3,52.5c-3.1,1.6-4.8,2.9-4.8,3.8c0,0.7,1.1,1,2.2,1
			c0.8,0,1.6-0.2,2.6-0.5L282.3,52.5z M280.2,46.2c-0.7-0.7-1.4-1.2-2.1-1.8c0.5-0.6,0.9-1.2,1.4-1.7c0.7,0.6,1.3,1.1,2,1.9
			C281,45.3,280.7,45.8,280.2,46.2z M283.6,46c-0.7-0.7-1.4-1.2-2.1-1.8c0.5-0.6,0.9-1.2,1.4-1.7c0.7,0.6,1.3,1.1,2,1.9
			C284.4,45.1,284.1,45.6,283.6,46z"/>
		<path class="st0" d="M304.7,61.1h-0.4c-2.2,0-3.2-0.7-3.6-1.7h-0.1c-1,1.2-2,1.7-3,1.7c-0.8,0-1.6-0.2-1.9-1.5h-0.1
			c-0.8,0.9-1.7,1.5-3,1.5c-1,0-1.6-0.5-1.7-1.5h-0.1c-1.1,1.2-2.5,1.5-3.7,1.5h-0.3c-1,0-1.2-0.7-1.2-1.2c0-0.4,0.3-1.1,1.2-1.1
			h0.6c1.6,0,2.8-0.4,3.7-1.6l0.9-1.4l1.4-0.5l0.1,0.1c-0.7,1.2-1.1,2-1.1,2.5c0,0.5,0.4,0.9,0.9,0.9c0.5,0,1.1-0.2,1.5-0.5
			c0.4-0.3,0.9-0.9,1.1-1.5l0.4-1l1.3-0.6l0.1,0.1c-0.5,1.3-0.7,2-0.7,2.6c0,0.5,0.3,1,1,1c0.6,0,0.9-0.2,1.2-0.4
			c0.5-0.4,0.8-0.9,1-1.7c0.1-0.3,0.2-0.6,0.4-1.4l1.3-0.9l0.1,0.1c-0.2,0.8-0.4,1.8-0.4,2.4c0,1.4,1.2,1.9,2.9,1.9h0.4V61.1z"/>
		<path class="st0" d="M305,58.9c1.4,0,2.8-0.5,3-1.5l0.5-1.9l1.2-0.9l0.1,0.1c-0.2,0.9-0.4,1.7-0.4,2c0,0.6,0.2,1.1,0.6,1.5
			c0.6,0.5,1.2,0.7,2.2,0.7h0.3v2.2h-0.4c-1.7,0-3-0.5-3.6-1.8h-0.1c-0.6,1.2-2,1.8-3.5,1.8h-0.3c-1,0-1.2-0.7-1.2-1.2
			c0-0.4,0.3-1.1,1.2-1.1H305z M307,68.1c-0.7-0.7-1.4-1.2-2.1-1.8c0.5-0.6,0.9-1.2,1.4-1.7c0.7,0.6,1.3,1.1,2,1.9
			C307.9,67.2,307.5,67.7,307,68.1z M310.4,67.9c-0.7-0.7-1.4-1.2-2.1-1.8c0.5-0.6,0.9-1.2,1.4-1.7c0.7,0.6,1.3,1.1,2,1.9
			C311.3,67,310.9,67.5,310.4,67.9z"/>
		<path class="st0" d="M313,58.9c1.4,0,2.8-0.5,3-1.5l0.5-1.9l1.2-0.9l0.1,0.1c-0.2,0.9-0.4,1.7-0.4,2c0,0.6,0.2,1.1,0.6,1.5
			c0.6,0.5,1.2,0.7,2.2,0.7h0.3v2.2h-0.4c-1.7,0-3-0.5-3.6-1.8h-0.1c-0.6,1.2-2,1.8-3.5,1.8h-0.3c-1,0-1.2-0.7-1.2-1.2
			c0-0.4,0.3-1.1,1.2-1.1H313z M316,48.3c0.7,0.5,1.4,1.2,2.1,1.9c-0.4,0.6-0.9,1.2-1.5,1.7c-0.7-0.7-1.4-1.2-2.1-1.8
			C315.1,49.4,315.6,48.8,316,48.3z"/>
		<path class="st0" d="M330.6,55.2c-4.4,0-6.4-0.5-7.1-0.9s-1.2-1-1.2-1.8c0-0.5,0.2-1.3,0.5-2.1c0.7-1.3,1.7-2.6,3.3-3.9
			c1.6-1.2,3.3-1.9,4.3-1.9c0.8,0,1.2,0.5,1.2,1.2c0,0.7-0.2,1.4-0.7,2.1h-0.2c-0.2-0.6-0.5-0.9-1-0.9c-1.2,0-2.6,0.6-3.9,1.7
			c-1.1,0.9-2.2,1.8-2.2,2.4c0,1.1,3,1.7,7.5,1.7c9.6,0,19.5-1.5,23.9-1.5c4.3,0,7.5,1.6,7.5,5.7c0,0.2,0,0.4,0,0.6l-0.8,2.1
			c-1.2-0.3-2.8-0.4-4.7-0.4c-7.6,0-19.4,1.8-36.1,1.8h-0.7c-1,0-1.2-0.7-1.2-1.2c0-0.4,0.3-1.1,1.2-1.1h0.7
			c17.9,0,29.1-1.8,36.1-1.8c1.4,0,2.7,0.1,3.8,0.3l0.1-0.1c-0.2-2.5-2.3-3.8-6.5-3.8C349.5,53.6,339.1,55.2,330.6,55.2z"/>
	</g>
</g>
</svg>
